G04*
G04 #@! TF.GenerationSoftware,Altium Limited,Altium Designer,21.9.2 (33)*
G04*
G04 Layer_Color=16711935*
%FSLAX25Y25*%
%MOIN*%
G70*
G04*
G04 #@! TF.SameCoordinates,FCC0D48B-1CBD-4A19-82D4-69B650A40008*
G04*
G04*
G04 #@! TF.FilePolarity,Negative*
G04*
G01*
G75*
%ADD18C,0.09068*%
%ADD19C,0.06048*%
%ADD20C,0.16942*%
%ADD21C,0.08300*%
%ADD22C,0.05200*%
%ADD23C,0.08359*%
%ADD24R,0.08359X0.08359*%
%ADD25R,0.07591X0.07591*%
%ADD26C,0.07591*%
%ADD27R,0.07591X0.07591*%
%ADD28R,0.04934X0.04934*%
%ADD29C,0.04934*%
%ADD30C,0.06300*%
%ADD31R,0.06300X0.06300*%
%ADD32R,0.07887X0.07887*%
%ADD33C,0.07887*%
%ADD34C,0.07296*%
%ADD35R,0.07296X0.07296*%
%ADD36R,0.05328X0.05328*%
%ADD37C,0.05328*%
%ADD38C,0.05131*%
%ADD39C,0.05524*%
%ADD40R,0.05524X0.05524*%
%ADD41R,0.05328X0.05328*%
%ADD42R,0.09599X0.09599*%
%ADD43C,0.09599*%
%ADD44C,0.06678*%
%ADD45R,0.05461X0.05461*%
%ADD46C,0.05461*%
%ADD47C,0.05359*%
%ADD48R,0.05359X0.05359*%
%ADD49C,0.04800*%
D18*
X344921Y84000D02*
D03*
X284843D02*
D03*
X265000D02*
D03*
X245157D02*
D03*
Y54472D02*
D03*
X265000D02*
D03*
X284843D02*
D03*
X344921D02*
D03*
D19*
X301000Y32000D02*
D03*
X296000Y26685D02*
D03*
X291000Y32000D02*
D03*
X67000Y103963D02*
D03*
X72000Y98648D02*
D03*
X77000Y103963D02*
D03*
X58790Y161000D02*
D03*
X53475Y166000D02*
D03*
X58790Y171000D02*
D03*
D20*
X12000Y12000D02*
D03*
Y312000D02*
D03*
X356000D02*
D03*
Y12000D02*
D03*
D21*
X90000Y155000D02*
D03*
X80000D02*
D03*
Y125000D02*
D03*
X90000D02*
D03*
D22*
X94300Y216000D02*
D03*
X114000D02*
D03*
X94000Y189000D02*
D03*
X113700D02*
D03*
X94300Y202802D02*
D03*
X114000D02*
D03*
X291947Y185300D02*
D03*
Y205000D02*
D03*
X305167Y185300D02*
D03*
Y205000D02*
D03*
X278726Y185300D02*
D03*
Y205000D02*
D03*
X38000Y270000D02*
D03*
X18300D02*
D03*
X35000Y280300D02*
D03*
Y300000D02*
D03*
X265506Y185300D02*
D03*
Y205000D02*
D03*
X280300Y297000D02*
D03*
X300000D02*
D03*
X346000Y170000D02*
D03*
Y150300D02*
D03*
Y252000D02*
D03*
Y232300D02*
D03*
X331000Y283000D02*
D03*
X311300D02*
D03*
D23*
X101000Y102000D02*
D03*
X111000D02*
D03*
D24*
X121000D02*
D03*
D25*
X179000Y37000D02*
D03*
X223000D02*
D03*
D26*
X159000D02*
D03*
X203000D02*
D03*
X30000Y178000D02*
D03*
Y116000D02*
D03*
X139000Y179000D02*
D03*
Y169000D02*
D03*
Y159000D02*
D03*
Y149000D02*
D03*
X229000Y161000D02*
D03*
Y151000D02*
D03*
Y141000D02*
D03*
X232000Y110000D02*
D03*
Y120000D02*
D03*
X230000Y279000D02*
D03*
Y289000D02*
D03*
X229000Y237000D02*
D03*
Y247000D02*
D03*
X139000Y213000D02*
D03*
D27*
X30000Y158000D02*
D03*
Y136000D02*
D03*
X139000Y189000D02*
D03*
X229000Y131000D02*
D03*
X232000Y100000D02*
D03*
X230000Y269000D02*
D03*
X229000Y227000D02*
D03*
X139000Y223000D02*
D03*
D28*
X237000Y181706D02*
D03*
D29*
X227000D02*
D03*
X237000Y191706D02*
D03*
X227000D02*
D03*
X237000Y201706D02*
D03*
X227000D02*
D03*
D30*
X346000Y108488D02*
D03*
D31*
Y142000D02*
D03*
D32*
X276000Y138000D02*
D03*
D33*
X315370D02*
D03*
D34*
X252000Y282132D02*
D03*
X262000D02*
D03*
X252000Y272132D02*
D03*
X262000D02*
D03*
X252000Y262132D02*
D03*
X262000D02*
D03*
X252000Y252132D02*
D03*
X262000D02*
D03*
X252000Y242132D02*
D03*
D35*
X262000D02*
D03*
D36*
X140000Y109000D02*
D03*
X248000Y175000D02*
D03*
X104000Y238874D02*
D03*
D37*
X140000Y139000D02*
D03*
X248000Y205000D02*
D03*
X104000Y231000D02*
D03*
X275000Y32000D02*
D03*
X251000D02*
D03*
D38*
X245000Y166000D02*
D03*
Y123000D02*
D03*
D39*
X120780Y67000D02*
D03*
X343000Y197000D02*
D03*
X139000Y296486D02*
D03*
X99000D02*
D03*
X139000Y309889D02*
D03*
X99000D02*
D03*
X77000Y19000D02*
D03*
X37000D02*
D03*
X139000Y268486D02*
D03*
X99000D02*
D03*
Y254486D02*
D03*
X139000D02*
D03*
X143000Y31201D02*
D03*
X103000D02*
D03*
X143000Y43201D02*
D03*
X103000D02*
D03*
X139000Y282486D02*
D03*
X99000D02*
D03*
X40000Y254403D02*
D03*
X80000D02*
D03*
X143000Y19201D02*
D03*
X103000D02*
D03*
X40000Y210081D02*
D03*
X80000D02*
D03*
Y221161D02*
D03*
X40000D02*
D03*
Y243322D02*
D03*
X80000D02*
D03*
Y199000D02*
D03*
X40000D02*
D03*
X80000Y232242D02*
D03*
X40000D02*
D03*
X306590Y224500D02*
D03*
Y264500D02*
D03*
X77000Y33000D02*
D03*
X37000D02*
D03*
X112597Y163000D02*
D03*
Y123000D02*
D03*
X86000Y174000D02*
D03*
X126000D02*
D03*
Y123000D02*
D03*
Y163000D02*
D03*
X283500Y224500D02*
D03*
Y264500D02*
D03*
X295045Y224500D02*
D03*
Y264500D02*
D03*
X329680D02*
D03*
Y224500D02*
D03*
X318135Y264500D02*
D03*
Y224500D02*
D03*
X349000Y297000D02*
D03*
X309000D02*
D03*
D40*
X107000Y67000D02*
D03*
X329220Y197000D02*
D03*
D41*
X267126Y32000D02*
D03*
X243126D02*
D03*
D42*
X149000Y85000D02*
D03*
Y63000D02*
D03*
D43*
X169000Y85000D02*
D03*
X189000D02*
D03*
X209000D02*
D03*
X169000Y63000D02*
D03*
X189000D02*
D03*
X209000D02*
D03*
D44*
X60000Y123948D02*
D03*
Y134184D02*
D03*
Y144420D02*
D03*
D45*
X153626Y305000D02*
D03*
D46*
Y295000D02*
D03*
Y285000D02*
D03*
Y275000D02*
D03*
Y265000D02*
D03*
Y255000D02*
D03*
Y245000D02*
D03*
Y235000D02*
D03*
Y225000D02*
D03*
Y215000D02*
D03*
Y205000D02*
D03*
Y195000D02*
D03*
Y185000D02*
D03*
Y175000D02*
D03*
Y165000D02*
D03*
Y155000D02*
D03*
Y145000D02*
D03*
Y135000D02*
D03*
Y125000D02*
D03*
Y115000D02*
D03*
X214374D02*
D03*
Y125000D02*
D03*
Y135000D02*
D03*
Y145000D02*
D03*
Y155000D02*
D03*
Y165000D02*
D03*
Y175000D02*
D03*
Y185000D02*
D03*
Y195000D02*
D03*
Y205000D02*
D03*
Y215000D02*
D03*
Y225000D02*
D03*
Y235000D02*
D03*
Y245000D02*
D03*
Y255000D02*
D03*
Y265000D02*
D03*
Y275000D02*
D03*
Y285000D02*
D03*
Y295000D02*
D03*
Y305000D02*
D03*
D47*
X77374Y299000D02*
D03*
Y289000D02*
D03*
Y279000D02*
D03*
Y269000D02*
D03*
X46626D02*
D03*
Y279000D02*
D03*
Y289000D02*
D03*
D48*
Y299000D02*
D03*
D49*
X101000Y144000D02*
D03*
X103889Y305000D02*
D03*
M02*
