G04*
G04 #@! TF.GenerationSoftware,Altium Limited,Altium Designer,21.9.2 (33)*
G04*
G04 Layer_Physical_Order=2*
G04 Layer_Color=16711680*
%FSLAX25Y25*%
%MOIN*%
G70*
G04*
G04 #@! TF.SameCoordinates,FCC0D48B-1CBD-4A19-82D4-69B650A40008*
G04*
G04*
G04 #@! TF.FilePolarity,Positive*
G04*
G01*
G75*
%ADD50C,0.05000*%
%ADD51C,0.02000*%
%ADD52C,0.08268*%
%ADD53C,0.05248*%
%ADD54C,0.16142*%
%ADD55C,0.07500*%
%ADD56C,0.04400*%
%ADD57C,0.07559*%
%ADD58R,0.07559X0.07559*%
%ADD59R,0.06791X0.06791*%
%ADD60C,0.06791*%
%ADD61R,0.06791X0.06791*%
%ADD62R,0.04134X0.04134*%
%ADD63C,0.04134*%
%ADD64C,0.05500*%
%ADD65R,0.05500X0.05500*%
%ADD66R,0.07087X0.07087*%
%ADD67C,0.07087*%
%ADD68C,0.06496*%
%ADD69R,0.06496X0.06496*%
%ADD70R,0.04528X0.04528*%
%ADD71C,0.04528*%
%ADD72C,0.04331*%
%ADD73C,0.04724*%
%ADD74R,0.04724X0.04724*%
%ADD75R,0.04528X0.04528*%
%ADD76R,0.08799X0.08799*%
%ADD77C,0.08799*%
%ADD78C,0.05878*%
%ADD79R,0.04661X0.04661*%
%ADD80C,0.04661*%
%ADD81C,0.04559*%
%ADD82R,0.04559X0.04559*%
%ADD83C,0.04000*%
G36*
X349003Y318538D02*
X348566Y318101D01*
X347518Y316533D01*
X346797Y314792D01*
X346429Y312943D01*
Y311057D01*
X346797Y309208D01*
X347518Y307467D01*
X348566Y305899D01*
X349899Y304566D01*
X351466Y303518D01*
X353208Y302797D01*
X355057Y302429D01*
X356943D01*
X358792Y302797D01*
X360533Y303518D01*
X362101Y304566D01*
X362538Y305003D01*
X363000Y304812D01*
Y19188D01*
X362538Y18997D01*
X362101Y19434D01*
X360533Y20482D01*
X358792Y21203D01*
X356943Y21571D01*
X355057D01*
X353208Y21203D01*
X351466Y20482D01*
X349899Y19434D01*
X348566Y18101D01*
X347518Y16533D01*
X346797Y14792D01*
X346429Y12943D01*
Y11057D01*
X346797Y9208D01*
X347518Y7467D01*
X348566Y5899D01*
X349899Y4566D01*
X350030Y4479D01*
X349885Y4000D01*
X18115D01*
X17970Y4479D01*
X18101Y4566D01*
X19434Y5899D01*
X20482Y7467D01*
X21203Y9208D01*
X21571Y11057D01*
Y12943D01*
X21203Y14792D01*
X20482Y16533D01*
X19434Y18101D01*
X18101Y19434D01*
X16533Y20482D01*
X14792Y21203D01*
X12943Y21571D01*
X11057D01*
X9208Y21203D01*
X7467Y20482D01*
X5899Y19434D01*
X4566Y18101D01*
X4479Y17970D01*
X4000Y18115D01*
Y305885D01*
X4479Y306030D01*
X4566Y305899D01*
X5899Y304566D01*
X7467Y303518D01*
X9208Y302797D01*
X11057Y302429D01*
X12943D01*
X14792Y302797D01*
X16533Y303518D01*
X18101Y304566D01*
X19434Y305899D01*
X20482Y307467D01*
X21203Y309208D01*
X21571Y311057D01*
Y312943D01*
X21203Y314792D01*
X20482Y316533D01*
X19434Y318101D01*
X18997Y318538D01*
X19188Y319000D01*
X348812D01*
X349003Y318538D01*
D02*
G37*
%LPC*%
G36*
X309508Y300862D02*
X308491D01*
X307509Y300599D01*
X306628Y300091D01*
X306087Y299549D01*
X302684D01*
X302272Y299961D01*
X301428Y300448D01*
X300487Y300700D01*
X299513D01*
X298572Y300448D01*
X297728Y299961D01*
X297039Y299272D01*
X296552Y298428D01*
X296300Y297487D01*
Y296513D01*
X296552Y295572D01*
X297039Y294728D01*
X297728Y294039D01*
X298572Y293552D01*
X299513Y293300D01*
X300487D01*
X301428Y293552D01*
X302272Y294039D01*
X302684Y294451D01*
X306087D01*
X306628Y293910D01*
X307509Y293401D01*
X308491Y293138D01*
X309508D01*
X310491Y293401D01*
X311371Y293910D01*
X312090Y294629D01*
X312599Y295509D01*
X312862Y296492D01*
Y297509D01*
X312599Y298491D01*
X312090Y299372D01*
X311371Y300091D01*
X310491Y300599D01*
X309508Y300862D01*
D02*
G37*
G36*
X280800Y300179D02*
Y297500D01*
X283479D01*
X283282Y298235D01*
X282861Y298965D01*
X282265Y299561D01*
X281535Y299982D01*
X280800Y300179D01*
D02*
G37*
G36*
X279800D02*
X279065Y299982D01*
X278335Y299561D01*
X277739Y298965D01*
X277318Y298235D01*
X277121Y297500D01*
X279800D01*
Y300179D01*
D02*
G37*
G36*
X283479Y296500D02*
X280800D01*
Y293821D01*
X281535Y294018D01*
X282265Y294439D01*
X282861Y295035D01*
X283282Y295765D01*
X283479Y296500D01*
D02*
G37*
G36*
X279800D02*
X277121D01*
X277318Y295765D01*
X277739Y295035D01*
X278335Y294439D01*
X279065Y294018D01*
X279800Y293821D01*
Y296500D01*
D02*
G37*
G36*
X349509Y300862D02*
X348492D01*
X347509Y300599D01*
X346628Y300091D01*
X346087Y299549D01*
X345000D01*
X344024Y299355D01*
X343198Y298802D01*
X331095Y286700D01*
X330513D01*
X329572Y286448D01*
X328728Y285961D01*
X328039Y285272D01*
X327552Y284428D01*
X327300Y283487D01*
Y282513D01*
X327552Y281572D01*
X328039Y280728D01*
X328728Y280039D01*
X329572Y279552D01*
X330513Y279300D01*
X331487D01*
X332428Y279552D01*
X333272Y280039D01*
X333961Y280728D01*
X334448Y281572D01*
X334700Y282513D01*
Y283095D01*
X346056Y294451D01*
X346087D01*
X346628Y293910D01*
X347509Y293401D01*
X348492Y293138D01*
X349509D01*
X350491Y293401D01*
X351372Y293910D01*
X352091Y294629D01*
X352599Y295509D01*
X352862Y296492D01*
Y297509D01*
X352599Y298491D01*
X352091Y299372D01*
X351372Y300091D01*
X350491Y300599D01*
X349509Y300862D01*
D02*
G37*
G36*
X257300Y317549D02*
X217000D01*
X216024Y317355D01*
X215198Y316802D01*
X208198Y309802D01*
X207645Y308976D01*
X207451Y308000D01*
Y299374D01*
X207645Y298398D01*
X208198Y297572D01*
X210543Y295226D01*
Y294496D01*
X210804Y293521D01*
X211309Y292648D01*
X211546Y292411D01*
X211354Y291949D01*
X181656D01*
X171802Y301802D01*
X170975Y302355D01*
X170000Y302549D01*
X157457D01*
Y308831D01*
X149795D01*
Y301400D01*
X146411Y298016D01*
X145949Y298207D01*
Y305489D01*
X145755Y306464D01*
X145202Y307291D01*
X142862Y309631D01*
Y310397D01*
X142599Y311380D01*
X142090Y312260D01*
X141372Y312979D01*
X140491Y313488D01*
X139508Y313751D01*
X138491D01*
X137509Y313488D01*
X136628Y312979D01*
X135909Y312260D01*
X135401Y311380D01*
X135138Y310397D01*
Y309380D01*
X135401Y308398D01*
X135909Y307517D01*
X136628Y306798D01*
X137509Y306290D01*
X138491Y306027D01*
X139257D01*
X140851Y304433D01*
Y300391D01*
X140351Y300123D01*
X139508Y300348D01*
X138743D01*
X136440Y302651D01*
X135613Y303203D01*
X134638Y303397D01*
X107539D01*
X107217Y303897D01*
X107389Y304539D01*
Y305461D01*
X107150Y306351D01*
X106690Y307149D01*
X106038Y307801D01*
X105240Y308261D01*
X104350Y308500D01*
X103994D01*
X102862Y309631D01*
Y310397D01*
X102599Y311380D01*
X102091Y312260D01*
X101372Y312979D01*
X100491Y313488D01*
X99509Y313751D01*
X98492D01*
X97509Y313488D01*
X96628Y312979D01*
X96087Y312438D01*
X88263D01*
X87287Y312244D01*
X86460Y311691D01*
X77549Y302780D01*
X76876D01*
X75915Y302522D01*
X75053Y302024D01*
X74350Y301321D01*
X73852Y300459D01*
X73594Y299498D01*
Y298502D01*
X73852Y297541D01*
X74350Y296679D01*
X75053Y295976D01*
X75915Y295478D01*
X76876Y295220D01*
X77872D01*
X78833Y295478D01*
X79695Y295976D01*
X80398Y296679D01*
X80896Y297541D01*
X81154Y298502D01*
Y299175D01*
X89319Y307340D01*
X96087D01*
X96628Y306798D01*
X97509Y306290D01*
X98492Y306027D01*
X99257D01*
X100389Y304895D01*
Y304539D01*
X100561Y303897D01*
X100238Y303397D01*
X89222D01*
X88247Y303203D01*
X87420Y302651D01*
X77549Y292779D01*
X76876D01*
X75915Y292522D01*
X75053Y292024D01*
X74350Y291321D01*
X73852Y290459D01*
X73594Y289498D01*
Y288502D01*
X73852Y287541D01*
X74350Y286679D01*
X75053Y285976D01*
X75915Y285478D01*
X76876Y285221D01*
X77872D01*
X78833Y285478D01*
X79695Y285976D01*
X80398Y286679D01*
X80896Y287541D01*
X81154Y288502D01*
Y289175D01*
X90278Y298299D01*
X95066D01*
X95353Y297799D01*
X95138Y296995D01*
Y295978D01*
X95401Y294995D01*
X95910Y294115D01*
X96628Y293396D01*
X97509Y292887D01*
X98492Y292624D01*
X99509D01*
X100491Y292887D01*
X101372Y293396D01*
X102091Y294115D01*
X102599Y294995D01*
X102862Y295978D01*
Y296995D01*
X102647Y297799D01*
X102934Y298299D01*
X133582D01*
X135138Y296744D01*
Y295978D01*
X135401Y294995D01*
X135909Y294115D01*
X136628Y293396D01*
X137509Y292887D01*
X138271Y292683D01*
X138447Y292152D01*
X132798Y286502D01*
X132245Y285676D01*
X132051Y284700D01*
Y272886D01*
X132245Y271911D01*
X132798Y271084D01*
X135138Y268744D01*
Y268229D01*
X130158Y263249D01*
X86297D01*
X85322Y263055D01*
X84495Y262502D01*
X80257Y258265D01*
X79492D01*
X78509Y258002D01*
X77628Y257493D01*
X76910Y256774D01*
X76401Y255893D01*
X76138Y254911D01*
Y254074D01*
X75657Y253848D01*
X72749Y256756D01*
Y276900D01*
X72555Y277875D01*
X72002Y278702D01*
X55602Y295102D01*
X54776Y295655D01*
X53800Y295849D01*
X50406D01*
Y302780D01*
X42847D01*
Y295849D01*
X35951D01*
X35700Y295849D01*
X35621Y296336D01*
X35873Y296403D01*
X36428Y296552D01*
X37272Y297039D01*
X37961Y297728D01*
X38448Y298572D01*
X38700Y299513D01*
Y300487D01*
X38448Y301428D01*
X37961Y302272D01*
X37272Y302961D01*
X36428Y303448D01*
X35487Y303700D01*
X34513D01*
X33572Y303448D01*
X32728Y302961D01*
X32039Y302272D01*
X31552Y301428D01*
X31300Y300487D01*
Y299513D01*
X31552Y298572D01*
X32039Y297728D01*
X32728Y297039D01*
X33572Y296552D01*
X34513Y296300D01*
X35138D01*
X35405Y296300D01*
X35454Y295800D01*
X35216Y295753D01*
X34725Y295655D01*
X33898Y295102D01*
X25798Y287002D01*
X25245Y286175D01*
X25051Y285200D01*
Y248000D01*
X25245Y247024D01*
X25798Y246198D01*
X36792Y235203D01*
X36909Y234613D01*
X36401Y233732D01*
X36138Y232750D01*
Y231733D01*
X36401Y230751D01*
X36909Y229870D01*
X37629Y229151D01*
X38509Y228643D01*
X39492Y228379D01*
X40508D01*
X41491Y228643D01*
X42371Y229151D01*
X43091Y229870D01*
X43599Y230751D01*
X43862Y231733D01*
Y232750D01*
X43798Y232990D01*
X44246Y233249D01*
X64198Y213298D01*
X65025Y212745D01*
X66000Y212551D01*
X76389D01*
X76678Y212051D01*
X76401Y211571D01*
X76138Y210589D01*
Y209572D01*
X76401Y208590D01*
X76910Y207709D01*
X77628Y206990D01*
X78509Y206482D01*
X79492Y206218D01*
X80509D01*
X81491Y206482D01*
X82371Y206990D01*
X83091Y207709D01*
X83599Y208590D01*
X83862Y209572D01*
Y210589D01*
X83599Y211571D01*
X83322Y212051D01*
X83611Y212551D01*
X87244D01*
X92198Y207598D01*
X93024Y207045D01*
X94000Y206851D01*
X112883D01*
X112949Y206351D01*
X112572Y206250D01*
X111728Y205763D01*
X111039Y205074D01*
X110552Y204230D01*
X110300Y203289D01*
Y202315D01*
X110478Y201649D01*
X110143Y201149D01*
X97543D01*
X97304Y201649D01*
X97479Y202302D01*
X91121D01*
X91296Y201649D01*
X91057Y201149D01*
X88784D01*
X88476Y201355D01*
X87500Y201549D01*
X82913D01*
X82371Y202091D01*
X81491Y202599D01*
X80509Y202862D01*
X79492D01*
X78509Y202599D01*
X77628Y202091D01*
X77087Y201549D01*
X61056D01*
X45202Y217402D01*
X44376Y217955D01*
X43400Y218149D01*
X43103D01*
X42912Y218611D01*
X43091Y218790D01*
X43599Y219670D01*
X43862Y220653D01*
Y221670D01*
X43599Y222652D01*
X43091Y223533D01*
X42371Y224252D01*
X41491Y224760D01*
X40508Y225023D01*
X39492D01*
X38509Y224760D01*
X37629Y224252D01*
X36909Y223533D01*
X36401Y222652D01*
X36138Y221670D01*
Y220653D01*
X36401Y219670D01*
X36909Y218790D01*
X37088Y218611D01*
X36897Y218149D01*
X28256D01*
X20849Y225556D01*
Y267316D01*
X21261Y267728D01*
X21748Y268572D01*
X22000Y269513D01*
Y270487D01*
X21748Y271428D01*
X21261Y272272D01*
X20572Y272961D01*
X19728Y273448D01*
X18787Y273700D01*
X17813D01*
X16872Y273448D01*
X16028Y272961D01*
X15339Y272272D01*
X14852Y271428D01*
X14600Y270487D01*
Y269513D01*
X14852Y268572D01*
X15339Y267728D01*
X15751Y267316D01*
Y224500D01*
X15945Y223524D01*
X16498Y222698D01*
X25398Y213798D01*
X26224Y213245D01*
X27200Y213051D01*
X36855D01*
X37047Y212589D01*
X36909Y212452D01*
X36401Y211571D01*
X36138Y210589D01*
Y209572D01*
X36401Y208590D01*
X36909Y207709D01*
X37629Y206990D01*
X38509Y206482D01*
X39492Y206218D01*
X40508D01*
X41491Y206482D01*
X42371Y206990D01*
X43091Y207709D01*
X43599Y208590D01*
X43862Y209572D01*
Y210589D01*
X43775Y210913D01*
X44224Y211171D01*
X58198Y197198D01*
X59025Y196645D01*
X60000Y196451D01*
X77087D01*
X77628Y195910D01*
X78509Y195401D01*
X79492Y195138D01*
X80509D01*
X81491Y195401D01*
X82371Y195910D01*
X82913Y196451D01*
X86616D01*
X86924Y196245D01*
X87900Y196051D01*
X116493D01*
X116684Y195589D01*
X113795Y192700D01*
X113213D01*
X112272Y192448D01*
X111428Y191961D01*
X110739Y191272D01*
X110252Y190428D01*
X110000Y189487D01*
Y188513D01*
X110252Y187572D01*
X110739Y186728D01*
X111428Y186039D01*
X112272Y185552D01*
X113213Y185300D01*
X114187D01*
X115128Y185552D01*
X115972Y186039D01*
X116661Y186728D01*
X117148Y187572D01*
X117400Y188513D01*
Y189095D01*
X121756Y193451D01*
X134104D01*
Y184104D01*
X137202D01*
X137268Y183604D01*
X137110Y183562D01*
X135994Y182917D01*
X135082Y182006D01*
X134438Y180890D01*
X134104Y179645D01*
Y178356D01*
X134438Y177110D01*
X135082Y175994D01*
X135994Y175083D01*
X137110Y174438D01*
X137779Y174259D01*
Y173741D01*
X137110Y173562D01*
X135994Y172917D01*
X135082Y172006D01*
X134438Y170890D01*
X134104Y169644D01*
Y168356D01*
X134438Y167110D01*
X135082Y165994D01*
X135994Y165083D01*
X137110Y164438D01*
X137779Y164259D01*
Y163741D01*
X137110Y163562D01*
X135994Y162917D01*
X135082Y162006D01*
X134438Y160890D01*
X134104Y159644D01*
Y158355D01*
X134438Y157110D01*
X135082Y155994D01*
X135994Y155082D01*
X137110Y154438D01*
X137779Y154259D01*
Y153741D01*
X137110Y153562D01*
X135994Y152918D01*
X135082Y152006D01*
X134438Y150890D01*
X134104Y149644D01*
Y148355D01*
X134438Y147110D01*
X135082Y145994D01*
X135994Y145082D01*
X137110Y144438D01*
X138356Y144104D01*
X139645D01*
X140890Y144438D01*
X142006Y145082D01*
X142918Y145994D01*
X143562Y147110D01*
X143896Y148355D01*
Y149644D01*
X143759Y150154D01*
X146056Y152451D01*
X150758D01*
X151274Y151935D01*
X152147Y151430D01*
X153122Y151169D01*
X154130D01*
X155105Y151430D01*
X155978Y151935D01*
X156691Y152648D01*
X157196Y153521D01*
X157457Y154496D01*
Y155504D01*
X157196Y156479D01*
X156691Y157352D01*
X155978Y158065D01*
X155105Y158570D01*
X154130Y158831D01*
X153122D01*
X152147Y158570D01*
X151274Y158065D01*
X150758Y157549D01*
X145000D01*
X144152Y157380D01*
X143839Y157620D01*
X143737Y157764D01*
X143896Y158355D01*
Y159644D01*
X143759Y160154D01*
X146056Y162451D01*
X150758D01*
X151274Y161935D01*
X152147Y161430D01*
X153122Y161169D01*
X154130D01*
X155105Y161430D01*
X155978Y161935D01*
X156691Y162648D01*
X157196Y163521D01*
X157457Y164496D01*
Y165504D01*
X157196Y166479D01*
X156691Y167352D01*
X155978Y168065D01*
X155105Y168570D01*
X154130Y168831D01*
X153122D01*
X152147Y168570D01*
X151274Y168065D01*
X150758Y167549D01*
X145000D01*
X144152Y167380D01*
X143839Y167620D01*
X143737Y167764D01*
X143896Y168356D01*
Y169644D01*
X143759Y170154D01*
X146056Y172451D01*
X150758D01*
X151274Y171935D01*
X152147Y171430D01*
X153122Y171169D01*
X154130D01*
X155105Y171430D01*
X155978Y171935D01*
X156691Y172648D01*
X157196Y173521D01*
X157457Y174496D01*
Y175504D01*
X157196Y176479D01*
X156691Y177352D01*
X155978Y178065D01*
X155105Y178570D01*
X154130Y178831D01*
X153122D01*
X152147Y178570D01*
X151274Y178065D01*
X150758Y177549D01*
X145000D01*
X144152Y177380D01*
X143839Y177620D01*
X143737Y177764D01*
X143896Y178356D01*
Y179645D01*
X143759Y180154D01*
X146056Y182451D01*
X150758D01*
X151274Y181935D01*
X152147Y181430D01*
X153122Y181169D01*
X154130D01*
X155105Y181430D01*
X155978Y181935D01*
X156691Y182648D01*
X157196Y183521D01*
X157457Y184496D01*
Y185504D01*
X157196Y186479D01*
X156691Y187352D01*
X155978Y188065D01*
X155105Y188570D01*
X154130Y188831D01*
X153122D01*
X152147Y188570D01*
X151274Y188065D01*
X150895Y187686D01*
X150657Y187719D01*
X150478Y188247D01*
X153400Y191169D01*
X154130D01*
X155105Y191430D01*
X155978Y191935D01*
X156691Y192648D01*
X157196Y193521D01*
X157457Y194496D01*
Y195504D01*
X157196Y196479D01*
X156691Y197352D01*
X156454Y197589D01*
X156646Y198051D01*
X159600D01*
X160575Y198245D01*
X161402Y198798D01*
X166802Y204198D01*
X167355Y205025D01*
X167549Y206000D01*
Y213626D01*
X167355Y214601D01*
X166802Y215428D01*
X157457Y224774D01*
Y225504D01*
X157196Y226479D01*
X156691Y227352D01*
X155978Y228065D01*
X155105Y228570D01*
X154130Y228831D01*
X153400D01*
X152028Y230202D01*
X151201Y230755D01*
X150226Y230949D01*
X133400D01*
X132424Y230755D01*
X131598Y230202D01*
X118147Y216752D01*
X117589Y216901D01*
X117448Y217428D01*
X116961Y218272D01*
X116549Y218684D01*
Y236344D01*
X134676Y254471D01*
X135138Y254280D01*
Y253978D01*
X135401Y252995D01*
X135909Y252115D01*
X136628Y251396D01*
X137509Y250887D01*
X138491Y250624D01*
X139508D01*
X140491Y250887D01*
X141372Y251396D01*
X142090Y252115D01*
X142599Y252995D01*
X142862Y253978D01*
Y254995D01*
X142599Y255977D01*
X142090Y256858D01*
X141372Y257577D01*
X140491Y258085D01*
X139508Y258348D01*
X139207D01*
X139015Y258810D01*
X139456Y259251D01*
X150426D01*
X151401Y259445D01*
X152228Y259998D01*
X153400Y261169D01*
X154130D01*
X155105Y261430D01*
X155978Y261935D01*
X156691Y262648D01*
X157196Y263521D01*
X157457Y264496D01*
Y265226D01*
X159682Y267451D01*
X210788D01*
X211077Y266951D01*
X210804Y266479D01*
X210543Y265504D01*
Y264496D01*
X210804Y263521D01*
X211309Y262648D01*
X212022Y261935D01*
X212895Y261430D01*
X213870Y261169D01*
X214878D01*
X215853Y261430D01*
X216726Y261935D01*
X217439Y262648D01*
X217944Y263521D01*
X218205Y264496D01*
Y265504D01*
X217944Y266479D01*
X217671Y266951D01*
X217960Y267451D01*
X224344D01*
X224598Y267198D01*
X225104Y266859D01*
Y264104D01*
X234896D01*
Y273896D01*
X231798D01*
X231732Y274396D01*
X231890Y274438D01*
X233006Y275082D01*
X233917Y275994D01*
X234562Y277110D01*
X234896Y278356D01*
Y279644D01*
X234831Y279885D01*
X235266Y280196D01*
X235893Y279777D01*
X236868Y279583D01*
X248566D01*
X248601Y279523D01*
X249392Y278732D01*
X250360Y278173D01*
X251441Y277884D01*
X251500D01*
Y282132D01*
Y286380D01*
X251441D01*
X250360Y286090D01*
X249392Y285531D01*
X248601Y284740D01*
X248566Y284681D01*
X237924D01*
X234351Y288254D01*
X234396Y288421D01*
Y288500D01*
X230500D01*
Y284604D01*
X230579D01*
X230746Y284649D01*
X231130Y284266D01*
X230879Y283833D01*
X230644Y283896D01*
X229356D01*
X228110Y283562D01*
X227395Y283149D01*
X218240D01*
X217978Y283649D01*
X218205Y284496D01*
Y285504D01*
X218031Y286154D01*
X218433Y286584D01*
X219100Y286451D01*
X226396D01*
X226483Y286301D01*
X227301Y285483D01*
X228303Y284904D01*
X229421Y284604D01*
X229500D01*
Y289000D01*
Y293396D01*
X229421D01*
X228303Y293096D01*
X227301Y292517D01*
X226483Y291699D01*
X226396Y291549D01*
X219984D01*
X219675Y291755D01*
X218700Y291949D01*
X217394D01*
X217202Y292411D01*
X217439Y292648D01*
X217944Y293521D01*
X218205Y294496D01*
Y295504D01*
X217944Y296479D01*
X217439Y297352D01*
X216726Y298065D01*
X215853Y298570D01*
X214878Y298831D01*
X214148D01*
X212549Y300430D01*
Y301114D01*
X213049Y301389D01*
X213870Y301169D01*
X214878D01*
X215853Y301430D01*
X216726Y301935D01*
X217243Y302451D01*
X238076D01*
X254159Y286368D01*
X253852Y285967D01*
X253640Y286090D01*
X252559Y286380D01*
X252500D01*
Y282632D01*
X256248D01*
Y282691D01*
X255959Y283771D01*
X255836Y283984D01*
X256236Y284291D01*
X257362Y283165D01*
X257252Y282757D01*
Y281506D01*
X257575Y280299D01*
X258201Y279216D01*
X259085Y278332D01*
X260167Y277707D01*
X261375Y277384D01*
X262625D01*
X262740Y277414D01*
X263014Y276970D01*
X262874Y276813D01*
X262625Y276880D01*
X261375D01*
X260167Y276556D01*
X259085Y275931D01*
X258201Y275047D01*
X257575Y273964D01*
X257252Y272757D01*
Y271507D01*
X257575Y270299D01*
X258201Y269216D01*
X259085Y268332D01*
X260167Y267707D01*
X261375Y267384D01*
X262625D01*
X263833Y267707D01*
X264915Y268332D01*
X265799Y269216D01*
X266011Y269583D01*
X309447D01*
X314272Y264757D01*
Y263991D01*
X314536Y263009D01*
X314859Y262449D01*
X314570Y261949D01*
X310154D01*
X309865Y262449D01*
X310189Y263009D01*
X310452Y263991D01*
Y265008D01*
X310189Y265991D01*
X309680Y266872D01*
X308961Y267590D01*
X308081Y268099D01*
X307098Y268362D01*
X306081D01*
X305099Y268099D01*
X304218Y267590D01*
X303677Y267049D01*
X297958D01*
X297416Y267590D01*
X296536Y268099D01*
X295553Y268362D01*
X294536D01*
X293554Y268099D01*
X292673Y267590D01*
X292132Y267049D01*
X286413D01*
X285872Y267590D01*
X284991Y268099D01*
X284009Y268362D01*
X282992D01*
X282009Y268099D01*
X281129Y267590D01*
X280410Y266872D01*
X279901Y265991D01*
X279638Y265008D01*
Y263991D01*
X279901Y263009D01*
X280224Y262449D01*
X279936Y261949D01*
X266748D01*
Y262757D01*
X266424Y263964D01*
X265799Y265047D01*
X264915Y265931D01*
X263833Y266556D01*
X262625Y266880D01*
X261375D01*
X260167Y266556D01*
X259085Y265931D01*
X258201Y265047D01*
X257575Y263964D01*
X257252Y262757D01*
Y261507D01*
X257575Y260299D01*
X258201Y259216D01*
X259085Y258332D01*
X260167Y257707D01*
X261375Y257384D01*
X262625D01*
X263071Y257503D01*
X263633Y257127D01*
X263626Y257110D01*
X263626D01*
X263609Y257074D01*
X263609D01*
X263609Y257074D01*
D01*
X263342Y256687D01*
X262625Y256880D01*
X261375D01*
X260167Y256556D01*
X259085Y255931D01*
X258201Y255047D01*
X257575Y253964D01*
X257252Y252757D01*
Y251506D01*
X257575Y250299D01*
X258201Y249216D01*
X259085Y248332D01*
X260167Y247707D01*
X261375Y247384D01*
X262625D01*
X263833Y247707D01*
X264915Y248332D01*
X265799Y249216D01*
X266424Y250299D01*
X266748Y251506D01*
Y252757D01*
X266424Y253964D01*
X265799Y255047D01*
X264915Y255931D01*
X264068Y256420D01*
X264071Y256882D01*
X264089Y256929D01*
X264550Y256887D01*
X264732Y256851D01*
X324580D01*
X325555Y257045D01*
X326382Y257598D01*
X329422Y260638D01*
X330188D01*
X331170Y260901D01*
X332051Y261409D01*
X332770Y262128D01*
X333279Y263009D01*
X333542Y263991D01*
Y264200D01*
X334004Y264391D01*
X343451Y254944D01*
Y254684D01*
X343039Y254272D01*
X342552Y253428D01*
X342300Y252487D01*
Y251513D01*
X342552Y250572D01*
X343039Y249728D01*
X343728Y249039D01*
X344572Y248552D01*
X345513Y248300D01*
X346487D01*
X347428Y248552D01*
X348272Y249039D01*
X348961Y249728D01*
X349448Y250572D01*
X349700Y251513D01*
Y252487D01*
X349448Y253428D01*
X348961Y254272D01*
X348549Y254684D01*
Y256000D01*
X348355Y256976D01*
X347802Y257802D01*
X334902Y270702D01*
X334075Y271255D01*
X333100Y271449D01*
X322535D01*
X321559Y271255D01*
X320732Y270702D01*
X318392Y268362D01*
X317877D01*
X312305Y273934D01*
X311478Y274486D01*
X310503Y274681D01*
X268807D01*
X268616Y275143D01*
X269102Y275629D01*
X269655Y276456D01*
X269849Y277432D01*
Y305000D01*
X269655Y305976D01*
X269102Y306802D01*
X259102Y316802D01*
X258276Y317355D01*
X257300Y317549D01*
D02*
G37*
G36*
X230579Y293396D02*
X230500D01*
Y289500D01*
X234396D01*
Y289579D01*
X234096Y290697D01*
X233517Y291699D01*
X232699Y292517D01*
X231697Y293096D01*
X230579Y293396D01*
D02*
G37*
G36*
X311787Y286700D02*
X310813D01*
X309872Y286448D01*
X309028Y285961D01*
X308339Y285272D01*
X307852Y284428D01*
X307600Y283487D01*
Y282513D01*
X307852Y281572D01*
X308339Y280728D01*
X309028Y280039D01*
X309872Y279552D01*
X310813Y279300D01*
X311787D01*
X312728Y279552D01*
X313572Y280039D01*
X314261Y280728D01*
X314748Y281572D01*
X315000Y282513D01*
Y283487D01*
X314748Y284428D01*
X314261Y285272D01*
X313572Y285961D01*
X312728Y286448D01*
X311787Y286700D01*
D02*
G37*
G36*
X99509Y286348D02*
X98492D01*
X97509Y286085D01*
X96628Y285577D01*
X96087Y285035D01*
X80860D01*
X79885Y284841D01*
X79058Y284289D01*
X77549Y282780D01*
X76876D01*
X75915Y282522D01*
X75053Y282024D01*
X74350Y281321D01*
X73852Y280459D01*
X73594Y279498D01*
Y278502D01*
X73852Y277541D01*
X74350Y276679D01*
X75053Y275976D01*
X75915Y275478D01*
X76876Y275220D01*
X77872D01*
X78833Y275478D01*
X79695Y275976D01*
X80398Y276679D01*
X80896Y277541D01*
X81154Y278502D01*
Y279175D01*
X81916Y279937D01*
X96087D01*
X96628Y279396D01*
X97509Y278887D01*
X98492Y278624D01*
X99509D01*
X100491Y278887D01*
X101372Y279396D01*
X102091Y280115D01*
X102599Y280995D01*
X102862Y281978D01*
Y282995D01*
X102599Y283977D01*
X102091Y284858D01*
X101372Y285577D01*
X100491Y286085D01*
X99509Y286348D01*
D02*
G37*
G36*
X256248Y281632D02*
X252500D01*
Y277884D01*
X252559D01*
X253640Y278173D01*
X254608Y278732D01*
X255399Y279523D01*
X255959Y280492D01*
X256248Y281572D01*
Y281632D01*
D02*
G37*
G36*
X252625Y276880D02*
X251375D01*
X250167Y276556D01*
X249085Y275931D01*
X248201Y275047D01*
X247575Y273964D01*
X247252Y272757D01*
Y271507D01*
X247575Y270299D01*
X248201Y269216D01*
X249085Y268332D01*
X250167Y267707D01*
X251375Y267384D01*
X252625D01*
X253833Y267707D01*
X254915Y268332D01*
X255799Y269216D01*
X256424Y270299D01*
X256748Y271507D01*
Y272757D01*
X256424Y273964D01*
X255799Y275047D01*
X254915Y275931D01*
X253833Y276556D01*
X252625Y276880D01*
D02*
G37*
G36*
X77872Y272779D02*
X76876D01*
X75915Y272522D01*
X75053Y272024D01*
X74350Y271321D01*
X73852Y270459D01*
X73594Y269498D01*
Y268502D01*
X73852Y267541D01*
X74350Y266679D01*
X75053Y265976D01*
X75915Y265478D01*
X76876Y265220D01*
X77872D01*
X78833Y265478D01*
X79695Y265976D01*
X80170Y266451D01*
X87960D01*
X88438Y266131D01*
X89414Y265937D01*
X96087D01*
X96628Y265396D01*
X97509Y264887D01*
X98492Y264624D01*
X99509D01*
X100491Y264887D01*
X101372Y265396D01*
X102091Y266115D01*
X102599Y266995D01*
X102862Y267978D01*
Y268995D01*
X102599Y269977D01*
X102091Y270858D01*
X101372Y271577D01*
X100491Y272085D01*
X99509Y272348D01*
X98492D01*
X97509Y272085D01*
X96628Y271577D01*
X96087Y271035D01*
X90354D01*
X89876Y271355D01*
X88900Y271549D01*
X80170D01*
X79695Y272024D01*
X78833Y272522D01*
X77872Y272779D01*
D02*
G37*
G36*
X252625Y266880D02*
X251375D01*
X250167Y266556D01*
X249085Y265931D01*
X248201Y265047D01*
X247575Y263964D01*
X247252Y262757D01*
Y261507D01*
X247575Y260299D01*
X248201Y259216D01*
X249085Y258332D01*
X250167Y257707D01*
X251375Y257384D01*
X252625D01*
X253833Y257707D01*
X254915Y258332D01*
X255799Y259216D01*
X256424Y260299D01*
X256748Y261507D01*
Y262757D01*
X256424Y263964D01*
X255799Y265047D01*
X254915Y265931D01*
X253833Y266556D01*
X252625Y266880D01*
D02*
G37*
G36*
X153126Y258314D02*
X152340Y258104D01*
X151581Y257665D01*
X150961Y257045D01*
X150522Y256286D01*
X150312Y255500D01*
X153126D01*
Y258314D01*
D02*
G37*
G36*
X214878Y258831D02*
X213870D01*
X212895Y258570D01*
X212022Y258065D01*
X211309Y257352D01*
X210804Y256479D01*
X210543Y255504D01*
Y254496D01*
X210804Y253521D01*
X211077Y253049D01*
X210788Y252549D01*
X159682D01*
X156957Y255274D01*
Y255438D01*
X156730Y256286D01*
X156291Y257045D01*
X155671Y257665D01*
X154912Y258104D01*
X154126Y258314D01*
Y255000D01*
X153626D01*
Y254500D01*
X150312D01*
X150522Y253714D01*
X150961Y252955D01*
X151581Y252335D01*
X152340Y251896D01*
X153188Y251669D01*
X153352D01*
X156824Y248198D01*
X157650Y247645D01*
X158626Y247451D01*
X210788D01*
X211077Y246951D01*
X210804Y246479D01*
X210543Y245504D01*
Y244496D01*
X210804Y243521D01*
X211309Y242648D01*
X212022Y241935D01*
X212895Y241430D01*
X213870Y241169D01*
X214600D01*
X220572Y235198D01*
X221398Y234645D01*
X222374Y234451D01*
X224819D01*
X225082Y233994D01*
X225994Y233083D01*
X227110Y232438D01*
X227268Y232396D01*
X227202Y231896D01*
X224104D01*
Y229549D01*
X223430D01*
X218205Y234774D01*
Y235504D01*
X217944Y236479D01*
X217439Y237352D01*
X216726Y238065D01*
X215853Y238570D01*
X214878Y238831D01*
X213870D01*
X212895Y238570D01*
X212022Y238065D01*
X211309Y237352D01*
X210804Y236479D01*
X210543Y235504D01*
Y234496D01*
X210804Y233521D01*
X211309Y232648D01*
X212022Y231935D01*
X212895Y231430D01*
X213870Y231169D01*
X214600D01*
X220572Y225198D01*
X221398Y224645D01*
X222374Y224451D01*
X224104D01*
Y222104D01*
X233896D01*
Y231896D01*
X230798D01*
X230732Y232396D01*
X230890Y232438D01*
X232006Y233083D01*
X232917Y233994D01*
X233562Y235110D01*
X233896Y236355D01*
Y237645D01*
X233562Y238890D01*
X232917Y240006D01*
X232006Y240917D01*
X230890Y241562D01*
X229644Y241896D01*
X228356D01*
X227110Y241562D01*
X225994Y240917D01*
X225082Y240006D01*
X224819Y239549D01*
X223430D01*
X218205Y244774D01*
Y245504D01*
X217944Y246479D01*
X217671Y246951D01*
X217960Y247451D01*
X224604D01*
Y246421D01*
X224904Y245303D01*
X225483Y244301D01*
X226301Y243483D01*
X227303Y242904D01*
X228421Y242604D01*
X228500D01*
Y247000D01*
Y251396D01*
X228421D01*
X228254Y251351D01*
X227802Y251802D01*
X227580Y251951D01*
X227732Y252451D01*
X232544D01*
X238051Y246944D01*
Y240732D01*
Y234600D01*
X238245Y233625D01*
X238798Y232798D01*
X253298Y218298D01*
X253670Y218049D01*
X253518Y217549D01*
X217243D01*
X216726Y218065D01*
X215853Y218570D01*
X214878Y218831D01*
X213870D01*
X212895Y218570D01*
X212022Y218065D01*
X211309Y217352D01*
X210804Y216479D01*
X210543Y215504D01*
Y214496D01*
X210804Y213521D01*
X211219Y212803D01*
X211063Y212291D01*
X211006Y212243D01*
X210198Y211702D01*
X205798Y207302D01*
X205245Y206475D01*
X205051Y205500D01*
Y200030D01*
X153852Y148831D01*
X153122D01*
X152147Y148570D01*
X151274Y148065D01*
X150561Y147352D01*
X150056Y146479D01*
X149795Y145504D01*
Y144496D01*
X150056Y143521D01*
X150561Y142648D01*
X151274Y141935D01*
X152147Y141430D01*
X153122Y141169D01*
X154130D01*
X155105Y141430D01*
X155978Y141935D01*
X156691Y142648D01*
X157196Y143521D01*
X157457Y144496D01*
Y145226D01*
X209402Y197172D01*
X209955Y197998D01*
X210149Y198974D01*
Y204035D01*
X210649Y204101D01*
X210804Y203521D01*
X211309Y202648D01*
X212022Y201935D01*
X212895Y201430D01*
X213870Y201169D01*
X214878D01*
X215853Y201430D01*
X216726Y201935D01*
X217309Y202518D01*
X217949Y202645D01*
X218776Y203198D01*
X218830Y203251D01*
X223837D01*
X224105Y202751D01*
X223959Y202206D01*
X227000D01*
Y201206D01*
X223959D01*
X224142Y200523D01*
X224546Y199823D01*
X225117Y199252D01*
X225816Y198848D01*
X226413Y198689D01*
X230604Y194498D01*
X231431Y193945D01*
X232406Y193751D01*
X233562D01*
X233812Y193318D01*
X233676Y193083D01*
X233433Y192176D01*
Y191237D01*
X233676Y190330D01*
X234146Y189516D01*
X234810Y188852D01*
X235623Y188382D01*
X236530Y188139D01*
X236962D01*
X239366Y185735D01*
X239175Y185273D01*
X233433D01*
Y179531D01*
X232971Y179340D01*
X230567Y181744D01*
Y182176D01*
X230324Y183083D01*
X229854Y183897D01*
X229190Y184561D01*
X228377Y185030D01*
X227470Y185273D01*
X226530D01*
X225623Y185030D01*
X224810Y184561D01*
X224146Y183897D01*
X223676Y183083D01*
X223433Y182176D01*
Y181237D01*
X223676Y180330D01*
X224146Y179516D01*
X224810Y178852D01*
X225623Y178383D01*
X226530Y178139D01*
X226962D01*
X231553Y173549D01*
X231346Y173049D01*
X219930D01*
X218205Y174774D01*
Y175504D01*
X217944Y176479D01*
X217439Y177352D01*
X216726Y178065D01*
X215853Y178570D01*
X214878Y178831D01*
X213870D01*
X212895Y178570D01*
X212022Y178065D01*
X211309Y177352D01*
X210804Y176479D01*
X210543Y175504D01*
Y174496D01*
X210804Y173521D01*
X211309Y172648D01*
X212022Y171935D01*
X212895Y171430D01*
X213870Y171169D01*
X214600D01*
X217072Y168698D01*
X217899Y168145D01*
X218874Y167951D01*
X241394D01*
X241644Y167518D01*
X241584Y167415D01*
X241335Y166482D01*
Y165517D01*
X241584Y164585D01*
X242067Y163749D01*
X242749Y163067D01*
X243585Y162584D01*
X244517Y162335D01*
X245482D01*
X246415Y162584D01*
X247251Y163067D01*
X247933Y163749D01*
X248416Y164585D01*
X248665Y165517D01*
Y166482D01*
X248416Y167415D01*
X248356Y167518D01*
X248606Y167951D01*
X252500D01*
X253475Y168145D01*
X254302Y168698D01*
X256802Y171198D01*
X257355Y172025D01*
X257549Y173000D01*
Y176206D01*
X257355Y177182D01*
X256802Y178009D01*
X252522Y182289D01*
X252713Y182751D01*
X262822D01*
X263234Y182339D01*
X264078Y181852D01*
X265019Y181600D01*
X265993D01*
X266934Y181852D01*
X267778Y182339D01*
X268467Y183028D01*
X268954Y183872D01*
X269206Y184813D01*
Y185787D01*
X268954Y186728D01*
X268467Y187572D01*
X267778Y188261D01*
X266934Y188748D01*
X265993Y189000D01*
X265019D01*
X264078Y188748D01*
X263234Y188261D01*
X262822Y187849D01*
X244462D01*
X240567Y191744D01*
Y192176D01*
X240324Y193083D01*
X240188Y193318D01*
X240438Y193751D01*
X266671D01*
X275526Y184895D01*
Y184879D01*
X275745Y184065D01*
X276166Y183335D01*
X276762Y182739D01*
X277491Y182318D01*
X278226Y182121D01*
Y185300D01*
X279226D01*
Y182121D01*
X279961Y182318D01*
X280691Y182739D01*
X280703Y182751D01*
X289970D01*
X289982Y182739D01*
X290712Y182318D01*
X291447Y182121D01*
Y185300D01*
Y188479D01*
X290712Y188282D01*
X289982Y187861D01*
X289970Y187849D01*
X280703D01*
X280691Y187861D01*
X279961Y188282D01*
X279148Y188500D01*
X279131D01*
X269529Y198102D01*
X268702Y198655D01*
X267726Y198849D01*
X239894D01*
X239687Y199349D01*
X239854Y199516D01*
X240324Y200330D01*
X240567Y201237D01*
Y202176D01*
X240324Y203083D01*
X239854Y203897D01*
X239190Y204561D01*
X238377Y205030D01*
X237470Y205273D01*
X237038D01*
X235422Y206889D01*
X235613Y207351D01*
X244434D01*
X244723Y206851D01*
X244493Y206453D01*
X244236Y205496D01*
Y204504D01*
X244493Y203547D01*
X244988Y202689D01*
X245689Y201988D01*
X246547Y201493D01*
X247504Y201236D01*
X248496D01*
X249453Y201493D01*
X250311Y201988D01*
X250774Y202451D01*
X262822D01*
X263234Y202039D01*
X264078Y201552D01*
X265019Y201300D01*
X265993D01*
X266934Y201552D01*
X267778Y202039D01*
X268467Y202728D01*
X268954Y203572D01*
X269206Y204513D01*
Y205487D01*
X268954Y206428D01*
X268710Y206851D01*
X268998Y207351D01*
X272771D01*
X275026Y205095D01*
Y204513D01*
X275278Y203572D01*
X275766Y202728D01*
X276454Y202039D01*
X277298Y201552D01*
X278239Y201300D01*
X279214D01*
X280155Y201552D01*
X280998Y202039D01*
X281687Y202728D01*
X282174Y203572D01*
X282426Y204513D01*
Y205487D01*
X282174Y206428D01*
X281687Y207272D01*
X280998Y207961D01*
X280155Y208448D01*
X279214Y208700D01*
X278631D01*
X275629Y211702D01*
X275257Y211951D01*
X275408Y212451D01*
X280891D01*
X288247Y205095D01*
Y204513D01*
X288499Y203572D01*
X288986Y202728D01*
X289675Y202039D01*
X290519Y201552D01*
X291460Y201300D01*
X292434D01*
X293375Y201552D01*
X294219Y202039D01*
X294630Y202451D01*
X302484D01*
X302895Y202039D01*
X303739Y201552D01*
X304680Y201300D01*
X305655D01*
X306596Y201552D01*
X307439Y202039D01*
X308128Y202728D01*
X308615Y203572D01*
X308867Y204513D01*
Y205487D01*
X308615Y206428D01*
X308128Y207272D01*
X307439Y207961D01*
X306596Y208448D01*
X305655Y208700D01*
X304680D01*
X303739Y208448D01*
X302895Y207961D01*
X302484Y207549D01*
X294630D01*
X294219Y207961D01*
X293375Y208448D01*
X292434Y208700D01*
X291852D01*
X283749Y216802D01*
X283377Y217051D01*
X283529Y217551D01*
X290645D01*
X291620Y217745D01*
X292447Y218298D01*
X294787Y220638D01*
X295553D01*
X296536Y220901D01*
X297416Y221410D01*
X298135Y222129D01*
X298644Y223009D01*
X298907Y223991D01*
Y225009D01*
X298644Y225991D01*
X298135Y226871D01*
X297416Y227590D01*
X296536Y228099D01*
X295553Y228362D01*
X294536D01*
X293554Y228099D01*
X292673Y227590D01*
X291954Y226871D01*
X291446Y225991D01*
X291183Y225009D01*
Y224243D01*
X289589Y222649D01*
X287405D01*
X287136Y223149D01*
X287362Y223991D01*
Y225009D01*
X287099Y225991D01*
X286591Y226871D01*
X285872Y227590D01*
X284991Y228099D01*
X284009Y228362D01*
X282992D01*
X282009Y228099D01*
X281129Y227590D01*
X280587Y227049D01*
X270687D01*
X260815Y236922D01*
X261006Y237384D01*
X266748D01*
Y246880D01*
X257252D01*
Y241679D01*
X256752Y241453D01*
X256737Y241466D01*
X256748Y241507D01*
Y242757D01*
X256424Y243964D01*
X255799Y245047D01*
X254915Y245931D01*
X253833Y246556D01*
X252625Y246880D01*
X251375D01*
X251260Y246849D01*
X250986Y247293D01*
X251126Y247450D01*
X251375Y247384D01*
X252625D01*
X253833Y247707D01*
X254915Y248332D01*
X255799Y249216D01*
X256424Y250299D01*
X256748Y251506D01*
Y252757D01*
X256424Y253964D01*
X255799Y255047D01*
X254915Y255931D01*
X253833Y256556D01*
X252625Y256880D01*
X251375D01*
X250167Y256556D01*
X249085Y255931D01*
X248201Y255047D01*
X247575Y253964D01*
X247252Y252757D01*
Y251506D01*
X247361Y251098D01*
X243611Y247347D01*
X243149Y247539D01*
Y248000D01*
X242955Y248975D01*
X242402Y249802D01*
X235402Y256802D01*
X234576Y257355D01*
X233600Y257549D01*
X217243D01*
X216726Y258065D01*
X215853Y258570D01*
X214878Y258831D01*
D02*
G37*
G36*
X229579Y251396D02*
X229500D01*
Y247500D01*
X233396D01*
Y247579D01*
X233096Y248697D01*
X232517Y249699D01*
X231699Y250517D01*
X230697Y251096D01*
X229579Y251396D01*
D02*
G37*
G36*
X233396Y246500D02*
X229500D01*
Y242604D01*
X229579D01*
X230697Y242904D01*
X231699Y243483D01*
X232517Y244301D01*
X233096Y245303D01*
X233396Y246421D01*
Y246500D01*
D02*
G37*
G36*
X154130Y248831D02*
X153122D01*
X152147Y248570D01*
X151274Y248065D01*
X150561Y247352D01*
X150056Y246479D01*
X149795Y245504D01*
Y244496D01*
X150056Y243521D01*
X150561Y242648D01*
X151274Y241935D01*
X152147Y241430D01*
X153122Y241169D01*
X154130D01*
X155105Y241430D01*
X155978Y241935D01*
X156691Y242648D01*
X157196Y243521D01*
X157457Y244496D01*
Y245504D01*
X157196Y246479D01*
X156691Y247352D01*
X155978Y248065D01*
X155105Y248570D01*
X154130Y248831D01*
D02*
G37*
G36*
Y238831D02*
X153122D01*
X152147Y238570D01*
X151274Y238065D01*
X150561Y237352D01*
X150056Y236479D01*
X149795Y235504D01*
Y234496D01*
X150056Y233521D01*
X150561Y232648D01*
X151274Y231935D01*
X152147Y231430D01*
X153122Y231169D01*
X154130D01*
X155105Y231430D01*
X155978Y231935D01*
X156691Y232648D01*
X157196Y233521D01*
X157457Y234496D01*
Y235504D01*
X157196Y236479D01*
X156691Y237352D01*
X155978Y238065D01*
X155105Y238570D01*
X154130Y238831D01*
D02*
G37*
G36*
X346487Y236000D02*
X345513D01*
X344572Y235748D01*
X343728Y235261D01*
X343316Y234849D01*
X337480D01*
X336504Y234655D01*
X335677Y234102D01*
X329937Y228362D01*
X329171D01*
X328189Y228099D01*
X327308Y227590D01*
X326767Y227049D01*
X321048D01*
X320506Y227590D01*
X319625Y228099D01*
X318643Y228362D01*
X317626D01*
X316644Y228099D01*
X315763Y227590D01*
X315044Y226871D01*
X314536Y225991D01*
X314272Y225009D01*
Y223991D01*
X314536Y223009D01*
X315044Y222129D01*
X315763Y221410D01*
X316644Y220901D01*
X317626Y220638D01*
X318643D01*
X319625Y220901D01*
X320506Y221410D01*
X321048Y221951D01*
X326767D01*
X327308Y221410D01*
X328189Y220901D01*
X329171Y220638D01*
X330188D01*
X331170Y220901D01*
X332051Y221410D01*
X332770Y222129D01*
X333279Y223009D01*
X333542Y223991D01*
Y224757D01*
X338535Y229751D01*
X343316D01*
X343728Y229339D01*
X344572Y228852D01*
X345513Y228600D01*
X346487D01*
X347428Y228852D01*
X348272Y229339D01*
X348961Y230028D01*
X349448Y230872D01*
X349700Y231813D01*
Y232787D01*
X349448Y233728D01*
X348961Y234572D01*
X348272Y235261D01*
X347428Y235748D01*
X346487Y236000D01*
D02*
G37*
G36*
X214874Y228314D02*
Y225500D01*
X217688D01*
X217478Y226286D01*
X217039Y227045D01*
X216419Y227665D01*
X215660Y228104D01*
X214874Y228314D01*
D02*
G37*
G36*
X213874D02*
X213088Y228104D01*
X212329Y227665D01*
X211709Y227045D01*
X211270Y226286D01*
X211060Y225500D01*
X213874D01*
Y228314D01*
D02*
G37*
G36*
X217688Y224500D02*
X214874D01*
Y221686D01*
X215660Y221896D01*
X216419Y222335D01*
X217039Y222955D01*
X217478Y223714D01*
X217688Y224500D01*
D02*
G37*
G36*
X213874D02*
X211060D01*
X211270Y223714D01*
X211709Y222955D01*
X212329Y222335D01*
X213088Y221896D01*
X213874Y221686D01*
Y224500D01*
D02*
G37*
G36*
X307098Y228362D02*
X306081D01*
X305099Y228099D01*
X304218Y227590D01*
X303499Y226871D01*
X302991Y225991D01*
X302728Y225009D01*
Y223991D01*
X302991Y223009D01*
X303499Y222129D01*
X304218Y221410D01*
X305099Y220901D01*
X306081Y220638D01*
X307098D01*
X308081Y220901D01*
X308961Y221410D01*
X309680Y222129D01*
X310189Y223009D01*
X310452Y223991D01*
Y225009D01*
X310189Y225991D01*
X309680Y226871D01*
X308961Y227590D01*
X308081Y228099D01*
X307098Y228362D01*
D02*
G37*
G36*
X94800Y205981D02*
Y203302D01*
X97479D01*
X97282Y204037D01*
X96861Y204767D01*
X96265Y205363D01*
X95535Y205784D01*
X94800Y205981D01*
D02*
G37*
G36*
X93800D02*
X93065Y205784D01*
X92335Y205363D01*
X91739Y204767D01*
X91318Y204037D01*
X91121Y203302D01*
X93800D01*
Y205981D01*
D02*
G37*
G36*
X343500Y200347D02*
Y197500D01*
X346347D01*
X346133Y198298D01*
X345690Y199064D01*
X345064Y199690D01*
X344298Y200133D01*
X343500Y200347D01*
D02*
G37*
G36*
X40508Y202862D02*
X39492D01*
X38509Y202599D01*
X37629Y202091D01*
X36909Y201372D01*
X36401Y200491D01*
X36138Y199509D01*
Y198492D01*
X36401Y197509D01*
X36909Y196628D01*
X37629Y195910D01*
X38509Y195401D01*
X39492Y195138D01*
X40508D01*
X41491Y195401D01*
X42371Y195910D01*
X43091Y196628D01*
X43599Y197509D01*
X43862Y198492D01*
Y199509D01*
X43599Y200491D01*
X43091Y201372D01*
X42371Y202091D01*
X41491Y202599D01*
X40508Y202862D01*
D02*
G37*
G36*
X333083Y200862D02*
X325358D01*
Y193138D01*
X333083D01*
Y200862D01*
D02*
G37*
G36*
X214878Y198831D02*
X213870D01*
X212895Y198570D01*
X212022Y198065D01*
X211309Y197352D01*
X210804Y196479D01*
X210543Y195504D01*
Y194496D01*
X210804Y193521D01*
X211309Y192648D01*
X212022Y191935D01*
X212895Y191430D01*
X213870Y191169D01*
X214878D01*
X215853Y191430D01*
X216726Y191935D01*
X217439Y192648D01*
X217944Y193521D01*
X218205Y194496D01*
Y195504D01*
X217944Y196479D01*
X217439Y197352D01*
X216726Y198065D01*
X215853Y198570D01*
X214878Y198831D01*
D02*
G37*
G36*
X94500Y192179D02*
Y189500D01*
X97179D01*
X96982Y190235D01*
X96561Y190965D01*
X95965Y191561D01*
X95235Y191982D01*
X94500Y192179D01*
D02*
G37*
G36*
X227470Y195273D02*
X226530D01*
X225623Y195030D01*
X224810Y194561D01*
X224505Y194255D01*
X221080D01*
X220105Y194061D01*
X219278Y193509D01*
X214600Y188831D01*
X213870D01*
X212895Y188570D01*
X212022Y188065D01*
X211309Y187352D01*
X210804Y186479D01*
X210543Y185504D01*
Y184496D01*
X210804Y183521D01*
X211309Y182648D01*
X212022Y181935D01*
X212895Y181430D01*
X213870Y181169D01*
X214878D01*
X215853Y181430D01*
X216726Y181935D01*
X217439Y182648D01*
X217944Y183521D01*
X218205Y184496D01*
Y185226D01*
X222136Y189157D01*
X224505D01*
X224810Y188852D01*
X225623Y188382D01*
X226530Y188139D01*
X227470D01*
X228377Y188382D01*
X229190Y188852D01*
X229854Y189516D01*
X230324Y190330D01*
X230567Y191237D01*
Y192176D01*
X230324Y193083D01*
X229854Y193897D01*
X229190Y194561D01*
X228377Y195030D01*
X227470Y195273D01*
D02*
G37*
G36*
X342500Y200347D02*
X341702Y200133D01*
X340936Y199690D01*
X340310Y199064D01*
X339867Y198298D01*
X339638Y197443D01*
Y197243D01*
X330244Y187849D01*
X307144D01*
X307132Y187861D01*
X306403Y188282D01*
X305667Y188479D01*
Y185300D01*
Y182121D01*
X306403Y182318D01*
X307132Y182739D01*
X307144Y182751D01*
X331300D01*
X332276Y182945D01*
X333102Y183498D01*
X343243Y193638D01*
X343443D01*
X344298Y193867D01*
X345064Y194310D01*
X345690Y194936D01*
X346133Y195702D01*
X346347Y196500D01*
X343000D01*
Y197000D01*
X342500D01*
Y200347D01*
D02*
G37*
G36*
X97179Y188500D02*
X94500D01*
Y185821D01*
X95235Y186018D01*
X95965Y186439D01*
X96561Y187035D01*
X96982Y187765D01*
X97179Y188500D01*
D02*
G37*
G36*
X93500Y192179D02*
X92765Y191982D01*
X92035Y191561D01*
X92023Y191549D01*
X76790D01*
X75815Y191355D01*
X74988Y190802D01*
X59290Y175105D01*
Y171500D01*
X62895D01*
X77846Y186451D01*
X92023D01*
X92035Y186439D01*
X92765Y186018D01*
X93500Y185821D01*
Y189000D01*
Y192179D01*
D02*
G37*
G36*
X292447Y188479D02*
Y185300D01*
Y182121D01*
X293182Y182318D01*
X293912Y182739D01*
X293923Y182751D01*
X303191D01*
X303203Y182739D01*
X303932Y182318D01*
X304667Y182121D01*
Y185300D01*
Y188479D01*
X303932Y188282D01*
X303203Y187861D01*
X303191Y187849D01*
X293923D01*
X293912Y187861D01*
X293182Y188282D01*
X292447Y188479D01*
D02*
G37*
G36*
X30645Y182896D02*
X29355D01*
X28110Y182562D01*
X26994Y181918D01*
X26083Y181006D01*
X25438Y179890D01*
X25104Y178645D01*
Y177356D01*
X25438Y176110D01*
X26083Y174994D01*
X26994Y174083D01*
X28110Y173438D01*
X29355Y173104D01*
X30645D01*
X31890Y173438D01*
X33006Y174083D01*
X33917Y174994D01*
X34562Y176110D01*
X34896Y177356D01*
Y178645D01*
X34562Y179890D01*
X33917Y181006D01*
X33006Y181918D01*
X31890Y182562D01*
X30645Y182896D01*
D02*
G37*
G36*
X126508Y177862D02*
X125491D01*
X124509Y177599D01*
X123628Y177091D01*
X122909Y176372D01*
X122401Y175491D01*
X122138Y174509D01*
Y173492D01*
X122401Y172509D01*
X122909Y171628D01*
X123628Y170910D01*
X124509Y170401D01*
X125491Y170138D01*
X126508D01*
X127491Y170401D01*
X128372Y170910D01*
X129090Y171628D01*
X129599Y172509D01*
X129862Y173492D01*
Y174509D01*
X129599Y175491D01*
X129090Y176372D01*
X128372Y177091D01*
X127491Y177599D01*
X126508Y177862D01*
D02*
G37*
G36*
X86509D02*
X85492D01*
X84509Y177599D01*
X83628Y177091D01*
X82910Y176372D01*
X82401Y175491D01*
X82138Y174509D01*
Y173743D01*
X76944Y168549D01*
X62137D01*
X61849Y169049D01*
X62167Y169601D01*
X62408Y170500D01*
X58790D01*
Y171000D01*
X58290D01*
Y174618D01*
X57392Y174377D01*
X56565Y173900D01*
X56214Y173549D01*
X43000D01*
X42024Y173355D01*
X41198Y172802D01*
X30791Y162396D01*
X30500D01*
Y158500D01*
X34396D01*
Y158791D01*
X44056Y168451D01*
X49628D01*
X49878Y168018D01*
X49632Y167592D01*
X49351Y166543D01*
Y165457D01*
X49632Y164408D01*
X50175Y163468D01*
X50943Y162700D01*
X51884Y162157D01*
X52933Y161876D01*
X54018D01*
X54330Y161959D01*
X54683Y161606D01*
X54666Y161543D01*
Y160457D01*
X54947Y159408D01*
X55452Y158535D01*
X55296Y158035D01*
X48000D01*
X46956Y157897D01*
X45983Y157494D01*
X45147Y156853D01*
X45147Y156853D01*
X29190Y140896D01*
X25104D01*
Y131104D01*
X34896D01*
Y135190D01*
X49671Y149966D01*
X77232D01*
X77232Y149966D01*
X78086Y150078D01*
X79309Y149750D01*
X80691D01*
X82026Y150108D01*
X83224Y150799D01*
X84201Y151776D01*
X84711Y152660D01*
X85289D01*
X85799Y151776D01*
X86776Y150799D01*
X87974Y150108D01*
X89309Y149750D01*
X89544D01*
X96783Y142511D01*
X96592Y142049D01*
X95556D01*
X91382Y146223D01*
X90555Y146775D01*
X89580Y146969D01*
X63654D01*
X63552Y147146D01*
X62726Y147972D01*
X61713Y148557D01*
X60584Y148859D01*
X59416D01*
X58287Y148557D01*
X57274Y147972D01*
X56448Y147146D01*
X55863Y146134D01*
X55561Y145005D01*
Y143836D01*
X55863Y142707D01*
X56448Y141695D01*
X57274Y140868D01*
X58287Y140284D01*
X59416Y139981D01*
X60584D01*
X61713Y140284D01*
X62726Y140868D01*
X63552Y141695D01*
X63654Y141871D01*
X88524D01*
X92698Y137698D01*
X93524Y137145D01*
X94500Y136951D01*
X102864D01*
X103839Y137145D01*
X104666Y137698D01*
X114400Y147431D01*
X114952Y148258D01*
X115146Y149233D01*
Y160087D01*
X115688Y160628D01*
X116196Y161509D01*
X116460Y162492D01*
Y163508D01*
X116196Y164491D01*
X115688Y165372D01*
X114969Y166091D01*
X114088Y166599D01*
X113106Y166862D01*
X112089D01*
X111107Y166599D01*
X110226Y166091D01*
X109507Y165372D01*
X108998Y164491D01*
X108735Y163508D01*
Y162492D01*
X108998Y161509D01*
X109507Y160628D01*
X110048Y160087D01*
Y150289D01*
X105188Y145429D01*
X104697Y145526D01*
X104494Y146017D01*
X103853Y146853D01*
X95250Y155456D01*
Y155691D01*
X94892Y157026D01*
X94201Y158224D01*
X93224Y159201D01*
X92026Y159892D01*
X90691Y160250D01*
X89309D01*
X87974Y159892D01*
X86776Y159201D01*
X85799Y158224D01*
X85289Y157340D01*
X84711D01*
X84201Y158224D01*
X83224Y159201D01*
X82026Y159892D01*
X80691Y160250D01*
X79309D01*
X77974Y159892D01*
X76776Y159201D01*
X75799Y158224D01*
X75690Y158035D01*
X62285D01*
X62129Y158535D01*
X62633Y159408D01*
X62914Y160457D01*
Y161543D01*
X62633Y162592D01*
X62387Y163018D01*
X62637Y163451D01*
X78000D01*
X78975Y163645D01*
X79802Y164198D01*
X85743Y170138D01*
X86509D01*
X87491Y170401D01*
X88371Y170910D01*
X88913Y171451D01*
X113944D01*
X122138Y163257D01*
Y162492D01*
X122401Y161509D01*
X122909Y160628D01*
X123628Y159909D01*
X124509Y159401D01*
X125491Y159138D01*
X126508D01*
X127491Y159401D01*
X128372Y159909D01*
X129090Y160628D01*
X129599Y161509D01*
X129862Y162492D01*
Y163508D01*
X129599Y164491D01*
X129090Y165372D01*
X128372Y166091D01*
X127491Y166599D01*
X126508Y166862D01*
X125743D01*
X116802Y175802D01*
X115975Y176355D01*
X115000Y176549D01*
X88913D01*
X88371Y177091D01*
X87491Y177599D01*
X86509Y177862D01*
D02*
G37*
G36*
X346487Y173700D02*
X345513D01*
X344572Y173448D01*
X343728Y172961D01*
X343039Y172272D01*
X342552Y171428D01*
X342300Y170487D01*
Y169513D01*
X342552Y168572D01*
X343039Y167728D01*
X343728Y167039D01*
X344572Y166552D01*
X345513Y166300D01*
X346487D01*
X347428Y166552D01*
X348272Y167039D01*
X348961Y167728D01*
X349448Y168572D01*
X349700Y169513D01*
Y170487D01*
X349448Y171428D01*
X348961Y172272D01*
X348272Y172961D01*
X347428Y173448D01*
X346487Y173700D01*
D02*
G37*
G36*
X229579Y165396D02*
X229500D01*
Y161500D01*
X233396D01*
Y161579D01*
X233096Y162697D01*
X232517Y163699D01*
X231699Y164517D01*
X230697Y165096D01*
X229579Y165396D01*
D02*
G37*
G36*
X228500D02*
X228421D01*
X227303Y165096D01*
X226301Y164517D01*
X225483Y163699D01*
X224904Y162697D01*
X224604Y161579D01*
Y161500D01*
X228500D01*
Y165396D01*
D02*
G37*
G36*
X214878Y168831D02*
X213870D01*
X212895Y168570D01*
X212022Y168065D01*
X211309Y167352D01*
X210804Y166479D01*
X210543Y165504D01*
Y164496D01*
X210804Y163521D01*
X211309Y162648D01*
X212022Y161935D01*
X212895Y161430D01*
X213870Y161169D01*
X214878D01*
X215853Y161430D01*
X216726Y161935D01*
X217439Y162648D01*
X217944Y163521D01*
X218205Y164496D01*
Y165504D01*
X217944Y166479D01*
X217439Y167352D01*
X216726Y168065D01*
X215853Y168570D01*
X214878Y168831D01*
D02*
G37*
G36*
X29500Y162396D02*
X25604D01*
Y158500D01*
X29500D01*
Y162396D01*
D02*
G37*
G36*
X233396Y160500D02*
X229500D01*
Y156604D01*
X229579D01*
X230697Y156904D01*
X231699Y157483D01*
X232517Y158301D01*
X233096Y159303D01*
X233396Y160421D01*
Y160500D01*
D02*
G37*
G36*
X228500D02*
X224604D01*
Y160421D01*
X224904Y159303D01*
X225483Y158301D01*
X226301Y157483D01*
X227303Y156904D01*
X228421Y156604D01*
X228500D01*
Y160500D01*
D02*
G37*
G36*
X34396Y157500D02*
X30500D01*
Y153604D01*
X34396D01*
Y157500D01*
D02*
G37*
G36*
X29500D02*
X25604D01*
Y153604D01*
X29500D01*
Y157500D01*
D02*
G37*
G36*
X214878Y158831D02*
X213870D01*
X212895Y158570D01*
X212022Y158065D01*
X211309Y157352D01*
X210804Y156479D01*
X210543Y155504D01*
Y154496D01*
X210804Y153521D01*
X211309Y152648D01*
X212022Y151935D01*
X212895Y151430D01*
X213870Y151169D01*
X214878D01*
X215853Y151430D01*
X216726Y151935D01*
X217439Y152648D01*
X217944Y153521D01*
X218205Y154496D01*
Y155504D01*
X217944Y156479D01*
X217439Y157352D01*
X216726Y158065D01*
X215853Y158570D01*
X214878Y158831D01*
D02*
G37*
G36*
X139500Y142245D02*
X138740Y142041D01*
X137996Y141612D01*
X137388Y141004D01*
X136959Y140260D01*
X136755Y139500D01*
X139500D01*
Y142245D01*
D02*
G37*
G36*
X315968Y142543D02*
X315870D01*
Y138500D01*
X319913D01*
Y138598D01*
X319604Y139754D01*
X319005Y140790D01*
X318160Y141636D01*
X317124Y142234D01*
X315968Y142543D01*
D02*
G37*
G36*
X314870D02*
X314772D01*
X313616Y142234D01*
X312580Y141636D01*
X311735Y140790D01*
X311136Y139754D01*
X310827Y138598D01*
Y138500D01*
X314870D01*
Y142543D01*
D02*
G37*
G36*
X346487Y154000D02*
X345513D01*
X344572Y153748D01*
X343728Y153261D01*
X343039Y152572D01*
X342552Y151728D01*
X342300Y150787D01*
Y149813D01*
X342552Y148872D01*
X343039Y148028D01*
X343728Y147339D01*
X344572Y146852D01*
X344953Y146750D01*
X344887Y146250D01*
X341750D01*
Y137750D01*
X350250D01*
Y146250D01*
X347113D01*
X347047Y146750D01*
X347428Y146852D01*
X348272Y147339D01*
X348961Y148028D01*
X349448Y148872D01*
X349700Y149813D01*
Y150787D01*
X349448Y151728D01*
X348961Y152572D01*
X348272Y153261D01*
X347428Y153748D01*
X346487Y154000D01*
D02*
G37*
G36*
X229644Y155896D02*
X228356D01*
X227110Y155562D01*
X225994Y154918D01*
X225082Y154006D01*
X224819Y153549D01*
X220374D01*
X219398Y153355D01*
X218572Y152802D01*
X214600Y148831D01*
X213870D01*
X212895Y148570D01*
X212022Y148065D01*
X211309Y147352D01*
X210804Y146479D01*
X210543Y145504D01*
Y144496D01*
X210804Y143521D01*
X211309Y142648D01*
X212022Y141935D01*
X212895Y141430D01*
X213870Y141169D01*
X214878D01*
X215853Y141430D01*
X216726Y141935D01*
X217439Y142648D01*
X217944Y143521D01*
X218205Y144496D01*
Y145226D01*
X221430Y148451D01*
X224819D01*
X225082Y147994D01*
X225994Y147082D01*
X227110Y146438D01*
X227779Y146259D01*
Y145741D01*
X227110Y145562D01*
X225994Y144918D01*
X225082Y144006D01*
X224438Y142890D01*
X224104Y141645D01*
Y140356D01*
X224241Y139846D01*
X221944Y137549D01*
X217243D01*
X216726Y138065D01*
X215853Y138570D01*
X214878Y138831D01*
X213870D01*
X212895Y138570D01*
X212022Y138065D01*
X211309Y137352D01*
X210804Y136479D01*
X210543Y135504D01*
Y134496D01*
X210804Y133521D01*
X211309Y132648D01*
X212022Y131935D01*
X212895Y131430D01*
X213870Y131169D01*
X214878D01*
X215853Y131430D01*
X216726Y131935D01*
X217243Y132451D01*
X223000D01*
X223604Y132571D01*
X224104Y132176D01*
Y126104D01*
X233896D01*
Y135896D01*
X230798D01*
X230732Y136396D01*
X230890Y136438D01*
X232006Y137083D01*
X232917Y137994D01*
X233562Y139110D01*
X233896Y140356D01*
Y141645D01*
X233562Y142890D01*
X232917Y144006D01*
X232006Y144918D01*
X230890Y145562D01*
X230221Y145741D01*
Y146259D01*
X230890Y146438D01*
X232006Y147082D01*
X232917Y147994D01*
X233562Y149110D01*
X233896Y150356D01*
Y151645D01*
X233562Y152890D01*
X232917Y154006D01*
X232006Y154918D01*
X230890Y155562D01*
X229644Y155896D01*
D02*
G37*
G36*
X154126Y138314D02*
Y135500D01*
X156940D01*
X156730Y136286D01*
X156291Y137045D01*
X155671Y137665D01*
X154912Y138104D01*
X154126Y138314D01*
D02*
G37*
G36*
X319913Y137500D02*
X315870D01*
Y133457D01*
X315968D01*
X317124Y133766D01*
X318160Y134364D01*
X319005Y135210D01*
X319604Y136246D01*
X319913Y137402D01*
Y137500D01*
D02*
G37*
G36*
X314870D02*
X310827D01*
Y137402D01*
X311136Y136246D01*
X311735Y135210D01*
X312580Y134364D01*
X313616Y133766D01*
X314772Y133457D01*
X314870D01*
Y137500D01*
D02*
G37*
G36*
X281043Y143043D02*
X270957D01*
Y132957D01*
X270957Y132957D01*
X270957D01*
X270741Y132547D01*
X237358Y99163D01*
X236896Y99355D01*
Y104896D01*
X233798D01*
X233732Y105396D01*
X233890Y105438D01*
X235006Y106082D01*
X235917Y106994D01*
X236562Y108110D01*
X236896Y109355D01*
Y110644D01*
X236562Y111890D01*
X235917Y113006D01*
X235006Y113918D01*
X233890Y114562D01*
X233221Y114741D01*
Y115259D01*
X233890Y115438D01*
X235006Y116083D01*
X235917Y116994D01*
X236562Y118110D01*
X236896Y119355D01*
Y120644D01*
X236562Y121890D01*
X235917Y123006D01*
X235006Y123917D01*
X233890Y124562D01*
X232645Y124896D01*
X231356D01*
X230110Y124562D01*
X228994Y123917D01*
X228082Y123006D01*
X227819Y122549D01*
X220430D01*
X218205Y124774D01*
Y125504D01*
X217944Y126479D01*
X217439Y127352D01*
X216726Y128065D01*
X215853Y128570D01*
X214878Y128831D01*
X213870D01*
X212895Y128570D01*
X212022Y128065D01*
X211309Y127352D01*
X210804Y126479D01*
X210543Y125504D01*
Y124496D01*
X210804Y123521D01*
X211309Y122648D01*
X212022Y121935D01*
X212895Y121430D01*
X213870Y121169D01*
X214600D01*
X217572Y118198D01*
X218398Y117645D01*
X219374Y117451D01*
X227819D01*
X228082Y116994D01*
X228994Y116083D01*
X230110Y115438D01*
X230779Y115259D01*
Y114741D01*
X230110Y114562D01*
X228994Y113918D01*
X228082Y113006D01*
X227819Y112549D01*
X220430D01*
X218205Y114774D01*
Y115504D01*
X217944Y116479D01*
X217439Y117352D01*
X216726Y118065D01*
X215853Y118570D01*
X214878Y118831D01*
X213870D01*
X212895Y118570D01*
X212022Y118065D01*
X211309Y117352D01*
X210804Y116479D01*
X210543Y115504D01*
Y114496D01*
X210804Y113521D01*
X211309Y112648D01*
X212022Y111935D01*
X212895Y111430D01*
X213870Y111169D01*
X214600D01*
X217572Y108198D01*
X218398Y107645D01*
X219374Y107451D01*
X227819D01*
X228082Y106994D01*
X228994Y106082D01*
X230110Y105438D01*
X230268Y105396D01*
X230202Y104896D01*
X227104D01*
Y102549D01*
X169682D01*
X157457Y114774D01*
Y115504D01*
X157196Y116479D01*
X156691Y117352D01*
X155978Y118065D01*
X155105Y118570D01*
X154130Y118831D01*
X153122D01*
X152147Y118570D01*
X151274Y118065D01*
X150561Y117352D01*
X150056Y116479D01*
X149795Y115504D01*
Y114496D01*
X150056Y113521D01*
X150561Y112648D01*
X151274Y111935D01*
X152147Y111430D01*
X153122Y111169D01*
X153852D01*
X166824Y98198D01*
X167650Y97645D01*
X167682Y97639D01*
X167632Y97139D01*
X157104D01*
X156060Y97001D01*
X155087Y96598D01*
X154252Y95957D01*
X154252Y95957D01*
X149194Y90900D01*
X143100D01*
Y89034D01*
X125671D01*
X118447Y96258D01*
X118639Y96720D01*
X126279D01*
Y107280D01*
X115720D01*
Y105349D01*
X115341Y105247D01*
X115220Y105246D01*
X114242Y106225D01*
X113038Y106920D01*
X111730Y107270D01*
X106868Y112132D01*
X106033Y112774D01*
X105060Y113177D01*
X104015Y113314D01*
X104015Y113314D01*
X82317D01*
X81273Y113177D01*
X80300Y112774D01*
X79464Y112132D01*
X79464Y112132D01*
X74767Y107436D01*
X74468Y107263D01*
X73700Y106495D01*
X73157Y105554D01*
X72876Y104506D01*
Y103420D01*
X72959Y103108D01*
X72606Y102755D01*
X72543Y102772D01*
X71457D01*
X71394Y102755D01*
X71041Y103108D01*
X71124Y103420D01*
Y104506D01*
X70843Y105554D01*
X70300Y106495D01*
X69532Y107263D01*
X68592Y107806D01*
X67543Y108087D01*
X66457D01*
X65408Y107806D01*
X64468Y107263D01*
X63700Y106495D01*
X63157Y105554D01*
X62876Y104506D01*
Y103420D01*
X63157Y102371D01*
X63700Y101430D01*
X64468Y100663D01*
X65408Y100120D01*
X66457Y99839D01*
X67543D01*
X67606Y99855D01*
X67959Y99502D01*
X67876Y99190D01*
Y98105D01*
X68157Y97056D01*
X68700Y96115D01*
X69468Y95348D01*
X70408Y94805D01*
X71457Y94524D01*
X72543D01*
X73592Y94805D01*
X74466Y95309D01*
X74966Y95153D01*
Y76671D01*
X34147Y35853D01*
X33506Y35017D01*
X33103Y34044D01*
X32965Y33000D01*
X33103Y31956D01*
X33506Y30983D01*
X34147Y30147D01*
X34983Y29506D01*
X35956Y29103D01*
X37000Y28965D01*
X38044Y29103D01*
X39017Y29506D01*
X39853Y30147D01*
X81853Y72147D01*
X82494Y72983D01*
X82897Y73956D01*
X83034Y75000D01*
X83034Y75000D01*
Y101895D01*
X83034Y101895D01*
X82897Y102940D01*
X82541Y103798D01*
X83988Y105245D01*
X96200D01*
X96488Y104745D01*
X96080Y104038D01*
X95720Y102695D01*
Y101305D01*
X96080Y99962D01*
X96775Y98758D01*
X97758Y97775D01*
X98962Y97080D01*
X100305Y96720D01*
X101695D01*
X103038Y97080D01*
X104242Y97775D01*
X105225Y98758D01*
X105711Y99601D01*
X106289D01*
X106775Y98758D01*
X106965Y98568D01*
Y98000D01*
X106965Y98000D01*
X107103Y96956D01*
X107506Y95983D01*
X108147Y95147D01*
X121147Y82147D01*
X121147Y82147D01*
X121983Y81506D01*
X122956Y81103D01*
X124000Y80966D01*
X124000Y80966D01*
X143100D01*
Y79100D01*
X154900D01*
Y85194D01*
X158775Y89070D01*
X164049D01*
X164290Y88570D01*
X163772Y87795D01*
X163327Y86721D01*
X163100Y85581D01*
Y84419D01*
X163327Y83279D01*
X163772Y82205D01*
X164418Y81239D01*
X165239Y80418D01*
X166206Y79772D01*
X167279Y79327D01*
X168419Y79100D01*
X169194D01*
X174583Y73711D01*
X174392Y73249D01*
X124480D01*
X123504Y73055D01*
X122677Y72502D01*
X120537Y70362D01*
X120337D01*
X119482Y70133D01*
X118715Y69690D01*
X118089Y69064D01*
X117647Y68298D01*
X117433Y67500D01*
X120780D01*
Y66500D01*
X117433D01*
X117647Y65702D01*
X118024Y65049D01*
X117834Y64549D01*
X113056D01*
X110862Y66743D01*
Y70862D01*
X103138D01*
Y63138D01*
X107257D01*
X110198Y60198D01*
X111024Y59645D01*
X112000Y59451D01*
X143100D01*
Y57100D01*
X154351D01*
Y46157D01*
X142757Y34563D01*
X142557D01*
X141702Y34334D01*
X140936Y33891D01*
X140310Y33265D01*
X139867Y32499D01*
X139653Y31701D01*
X143000D01*
Y31201D01*
X143500D01*
Y27854D01*
X144298Y28068D01*
X145064Y28510D01*
X145690Y29136D01*
X146133Y29903D01*
X146362Y30758D01*
Y30958D01*
X153784Y38380D01*
X154232Y38121D01*
X154104Y37644D01*
Y36356D01*
X154438Y35110D01*
X155082Y33994D01*
X155994Y33083D01*
X157110Y32438D01*
X158355Y32104D01*
X159644D01*
X160890Y32438D01*
X161803Y32965D01*
X163000D01*
X163000Y32965D01*
X164044Y33103D01*
X165017Y33506D01*
X165853Y34147D01*
X173606Y41901D01*
X174104Y41691D01*
X174104Y41480D01*
Y32104D01*
X183896D01*
Y32965D01*
X200197D01*
X201110Y32438D01*
X202356Y32104D01*
X203644D01*
X204890Y32438D01*
X206006Y33083D01*
X206918Y33994D01*
X207562Y35110D01*
X207835Y36129D01*
X231671Y59965D01*
X242404D01*
X242538Y59465D01*
X241698Y58981D01*
X240649Y57932D01*
X239908Y56647D01*
X239524Y55214D01*
Y54544D01*
X226875Y41896D01*
X218104D01*
Y32104D01*
X227896D01*
Y32993D01*
X228729Y33103D01*
X229702Y33506D01*
X230538Y34147D01*
X245157Y48767D01*
X249938Y43986D01*
X250774Y43345D01*
X251747Y42941D01*
X252791Y42804D01*
X252791Y42804D01*
X288005D01*
X288005Y42804D01*
X289049Y42941D01*
X290022Y43345D01*
X290858Y43986D01*
X297853Y50981D01*
X297853Y50981D01*
X298494Y51817D01*
X298897Y52790D01*
X299035Y53834D01*
Y73843D01*
X298897Y74887D01*
X298494Y75860D01*
X297853Y76695D01*
X297853Y76696D01*
X290476Y84072D01*
Y84742D01*
X290092Y86175D01*
X289351Y87459D01*
X288302Y88508D01*
X287017Y89250D01*
X285584Y89634D01*
X284101D01*
X282668Y89250D01*
X281383Y88508D01*
X280334Y87459D01*
X279593Y86175D01*
X279209Y84742D01*
Y83258D01*
X279593Y81825D01*
X280334Y80541D01*
X281383Y79492D01*
X282668Y78750D01*
X284101Y78366D01*
X284771D01*
X290966Y72171D01*
Y55973D01*
X290821Y55862D01*
X290251Y56055D01*
X290092Y56647D01*
X289351Y57932D01*
X288302Y58981D01*
X287017Y59722D01*
X285584Y60106D01*
X284101D01*
X282668Y59722D01*
X281383Y58981D01*
X280910Y58507D01*
X268933D01*
X268459Y58981D01*
X267175Y59722D01*
X265742Y60106D01*
X265072D01*
X258325Y66853D01*
X257490Y67494D01*
X256517Y67897D01*
X255472Y68034D01*
X255472Y68034D01*
X230000D01*
X230000Y68034D01*
X228956Y67897D01*
X227983Y67494D01*
X227147Y66853D01*
X227147Y66853D01*
X202129Y41835D01*
X201110Y41562D01*
X200197Y41034D01*
X183896D01*
Y41896D01*
X174552D01*
X174309Y41896D01*
X174099Y42394D01*
X188806Y57100D01*
X189581D01*
X190721Y57327D01*
X191795Y57772D01*
X192761Y58417D01*
X193582Y59239D01*
X194228Y60206D01*
X194673Y61279D01*
X194900Y62419D01*
Y63581D01*
X194673Y64721D01*
X194228Y65794D01*
X193582Y66761D01*
X192892Y67451D01*
X193078Y67951D01*
X200444D01*
X203830Y64566D01*
X203600Y63711D01*
Y63500D01*
X208500D01*
Y68400D01*
X208289D01*
X207434Y68170D01*
X204101Y71504D01*
X204293Y71965D01*
X247953D01*
X247953Y71965D01*
X248997Y72103D01*
X249971Y72506D01*
X250806Y73147D01*
X257625Y79966D01*
X261067D01*
X261541Y79492D01*
X262825Y78750D01*
X264258Y78366D01*
X265742D01*
X267175Y78750D01*
X268459Y79492D01*
X269508Y80541D01*
X270250Y81825D01*
X270634Y83258D01*
Y84742D01*
X270250Y86175D01*
X269508Y87459D01*
X268459Y88508D01*
X267175Y89250D01*
X265742Y89634D01*
X264258D01*
X262825Y89250D01*
X261541Y88508D01*
X261067Y88034D01*
X255953D01*
X255953Y88034D01*
X254909Y87897D01*
X253936Y87494D01*
X253100Y86853D01*
X251241Y84994D01*
X250684Y85143D01*
X250407Y86175D01*
X249666Y87459D01*
X248617Y88508D01*
X247332Y89250D01*
X245899Y89634D01*
X244416D01*
X242983Y89250D01*
X241698Y88508D01*
X240649Y87459D01*
X239908Y86175D01*
X239524Y84742D01*
Y83258D01*
X239908Y81825D01*
X240649Y80541D01*
X240693Y80497D01*
X240502Y80035D01*
X212165D01*
X212035Y80518D01*
X212315Y80679D01*
X213321Y81685D01*
X214032Y82916D01*
X214400Y84289D01*
Y84500D01*
X209000D01*
X203600D01*
Y84289D01*
X203968Y82916D01*
X204679Y81685D01*
X205685Y80679D01*
X205965Y80518D01*
X205835Y80035D01*
X193043D01*
X192878Y80534D01*
X193582Y81239D01*
X194228Y82205D01*
X194673Y83279D01*
X194900Y84419D01*
Y85581D01*
X194673Y86721D01*
X194228Y87795D01*
X193710Y88570D01*
X193951Y89070D01*
X204780D01*
X204972Y88608D01*
X204679Y88315D01*
X203968Y87084D01*
X203600Y85711D01*
Y85500D01*
X209000D01*
X214400D01*
Y85711D01*
X214032Y87084D01*
X213321Y88315D01*
X213028Y88608D01*
X213220Y89070D01*
X237004D01*
X237004Y89070D01*
X238049Y89207D01*
X239022Y89610D01*
X239857Y90251D01*
X278853Y129247D01*
X278853Y129247D01*
X279494Y130083D01*
X279897Y131056D01*
X280034Y132100D01*
X280034Y132100D01*
Y132957D01*
X281043D01*
Y143043D01*
D02*
G37*
G36*
X156940Y134500D02*
X154126D01*
Y131686D01*
X154912Y131896D01*
X155671Y132335D01*
X156291Y132955D01*
X156730Y133714D01*
X156940Y134500D01*
D02*
G37*
G36*
X140500Y142245D02*
Y139000D01*
X140000D01*
Y138500D01*
X136755D01*
X136959Y137740D01*
X137388Y136996D01*
X137996Y136388D01*
X138740Y135959D01*
X139570Y135736D01*
X139659D01*
X142198Y133198D01*
X143025Y132645D01*
X144000Y132451D01*
X151465D01*
X151581Y132335D01*
X152340Y131896D01*
X153126Y131686D01*
Y135000D01*
Y138314D01*
X152340Y138104D01*
X151581Y137665D01*
X151465Y137549D01*
X145056D01*
X143264Y139341D01*
Y139430D01*
X143041Y140260D01*
X142612Y141004D01*
X142004Y141612D01*
X141260Y142041D01*
X140500Y142245D01*
D02*
G37*
G36*
X118400Y133149D02*
X95600D01*
X94625Y132955D01*
X93798Y132402D01*
X91035Y129640D01*
X90625Y129750D01*
X90500D01*
Y125500D01*
X94750D01*
Y125625D01*
X94640Y126035D01*
X96656Y128051D01*
X117344D01*
X122638Y122757D01*
Y122557D01*
X122867Y121702D01*
X123310Y120936D01*
X123936Y120310D01*
X124702Y119867D01*
X125500Y119653D01*
Y123000D01*
X126000D01*
Y123500D01*
X129347D01*
X129133Y124298D01*
X128690Y125064D01*
X128064Y125690D01*
X127298Y126133D01*
X126443Y126362D01*
X126243D01*
X120202Y132402D01*
X119376Y132955D01*
X118400Y133149D01*
D02*
G37*
G36*
X59500Y127887D02*
X59481D01*
X58480Y127618D01*
X57581Y127100D01*
X56848Y126366D01*
X56330Y125468D01*
X56061Y124466D01*
Y124448D01*
X59500D01*
Y127887D01*
D02*
G37*
G36*
X154130Y128831D02*
X153122D01*
X152147Y128570D01*
X151274Y128065D01*
X150561Y127352D01*
X150056Y126479D01*
X149795Y125504D01*
Y124496D01*
X150056Y123521D01*
X150561Y122648D01*
X151274Y121935D01*
X152147Y121430D01*
X153122Y121169D01*
X154130D01*
X155105Y121430D01*
X155978Y121935D01*
X156691Y122648D01*
X157196Y123521D01*
X157457Y124496D01*
Y125504D01*
X157196Y126479D01*
X156691Y127352D01*
X155978Y128065D01*
X155105Y128570D01*
X154130Y128831D01*
D02*
G37*
G36*
X94750Y124500D02*
X90500D01*
Y120250D01*
X90625D01*
X91833Y120574D01*
X92917Y121199D01*
X93801Y122083D01*
X94426Y123167D01*
X94750Y124375D01*
Y124500D01*
D02*
G37*
G36*
X60584Y138623D02*
X59416D01*
X58287Y138321D01*
X57274Y137736D01*
X56448Y136910D01*
X55863Y135897D01*
X55561Y134768D01*
Y133600D01*
X55863Y132471D01*
X56448Y131458D01*
X57274Y130632D01*
X58287Y130048D01*
X59416Y129745D01*
X60584D01*
X61713Y130048D01*
X61889Y130149D01*
X62196Y129749D01*
X60500Y128053D01*
Y124448D01*
X64105D01*
X69008Y129351D01*
X76219D01*
X76426Y128851D01*
X75799Y128224D01*
X75108Y127026D01*
X74750Y125691D01*
Y124309D01*
X74952Y123556D01*
X69944Y118549D01*
X34181D01*
X33917Y119006D01*
X33006Y119918D01*
X31890Y120562D01*
X30645Y120896D01*
X29355D01*
X28110Y120562D01*
X26994Y119918D01*
X26083Y119006D01*
X25438Y117890D01*
X25104Y116645D01*
Y115356D01*
X25438Y114110D01*
X26083Y112994D01*
X26994Y112083D01*
X28110Y111438D01*
X29355Y111104D01*
X30645D01*
X31890Y111438D01*
X33006Y112083D01*
X33917Y112994D01*
X34181Y113451D01*
X71000D01*
X71975Y113645D01*
X72802Y114198D01*
X78556Y119952D01*
X79309Y119750D01*
X80691D01*
X82026Y120108D01*
X83224Y120799D01*
X84201Y121776D01*
X84892Y122974D01*
X85000Y123376D01*
X85518D01*
X85574Y123167D01*
X86199Y122083D01*
X87083Y121199D01*
X88167Y120574D01*
X89375Y120250D01*
X89500D01*
Y125000D01*
Y129750D01*
X89375D01*
X88965Y129640D01*
X84902Y133702D01*
X84075Y134255D01*
X83100Y134449D01*
X67952D01*
X66977Y134255D01*
X66150Y133702D01*
X64435Y131988D01*
X64035Y132294D01*
X64136Y132471D01*
X64439Y133600D01*
Y134768D01*
X64136Y135897D01*
X63552Y136910D01*
X62726Y137736D01*
X61713Y138321D01*
X60584Y138623D01*
D02*
G37*
G36*
X63939Y123448D02*
X60500D01*
Y120009D01*
X60519D01*
X61520Y120277D01*
X62419Y120796D01*
X63152Y121529D01*
X63670Y122427D01*
X63939Y123429D01*
Y123448D01*
D02*
G37*
G36*
X59500D02*
X56061D01*
Y123429D01*
X56330Y122427D01*
X56848Y121529D01*
X57581Y120796D01*
X58480Y120277D01*
X59481Y120009D01*
X59500D01*
Y123448D01*
D02*
G37*
G36*
X129347Y122500D02*
X126500D01*
Y119653D01*
X127298Y119867D01*
X128064Y120310D01*
X128690Y120936D01*
X129133Y121702D01*
X129347Y122500D01*
D02*
G37*
G36*
X245482Y126665D02*
X244517D01*
X243585Y126416D01*
X242749Y125933D01*
X242067Y125251D01*
X241584Y124415D01*
X241335Y123483D01*
Y122518D01*
X241584Y121585D01*
X242067Y120749D01*
X242749Y120067D01*
X243585Y119584D01*
X244517Y119335D01*
X245482D01*
X246415Y119584D01*
X247251Y120067D01*
X247933Y120749D01*
X248416Y121585D01*
X248665Y122518D01*
Y123483D01*
X248416Y124415D01*
X247933Y125251D01*
X247251Y125933D01*
X246415Y126416D01*
X245482Y126665D01*
D02*
G37*
G36*
X113106Y126862D02*
X112089D01*
X111107Y126599D01*
X110226Y126091D01*
X109507Y125372D01*
X108998Y124491D01*
X108735Y123509D01*
Y122492D01*
X108998Y121509D01*
X109507Y120628D01*
X110226Y119910D01*
X111107Y119401D01*
X112089Y119138D01*
X113106D01*
X114088Y119401D01*
X114969Y119910D01*
X115688Y120628D01*
X116196Y121509D01*
X116460Y122492D01*
Y123509D01*
X116196Y124491D01*
X115688Y125372D01*
X114969Y126091D01*
X114088Y126599D01*
X113106Y126862D01*
D02*
G37*
G36*
X143764Y112764D02*
X136236D01*
Y105236D01*
X143764D01*
Y112764D01*
D02*
G37*
G36*
X346560Y112738D02*
X345441D01*
X344360Y112449D01*
X343390Y111889D01*
X342599Y111098D01*
X342040Y110129D01*
X341750Y109048D01*
Y107929D01*
X342040Y106848D01*
X342599Y105879D01*
X343390Y105087D01*
X344360Y104528D01*
X345441Y104238D01*
X346560D01*
X347640Y104528D01*
X348610Y105087D01*
X349401Y105879D01*
X349960Y106848D01*
X350250Y107929D01*
Y109048D01*
X349960Y110129D01*
X349401Y111098D01*
X348610Y111889D01*
X347640Y112449D01*
X346560Y112738D01*
D02*
G37*
G36*
X345663Y89634D02*
X344180D01*
X342747Y89250D01*
X341462Y88508D01*
X340413Y87459D01*
X339671Y86175D01*
X339287Y84742D01*
Y83258D01*
X339671Y81825D01*
X340413Y80541D01*
X341462Y79492D01*
X342747Y78750D01*
X344180Y78366D01*
X345663D01*
X347096Y78750D01*
X348380Y79492D01*
X349429Y80541D01*
X350171Y81825D01*
X350555Y83258D01*
Y84742D01*
X350171Y86175D01*
X349429Y87459D01*
X348380Y88508D01*
X347096Y89250D01*
X345663Y89634D01*
D02*
G37*
G36*
X209711Y68400D02*
X209500D01*
Y63500D01*
X214400D01*
Y63711D01*
X214032Y65084D01*
X213321Y66315D01*
X212315Y67321D01*
X211084Y68032D01*
X209711Y68400D01*
D02*
G37*
G36*
X214400Y62500D02*
X209500D01*
Y57600D01*
X209711D01*
X211084Y57968D01*
X212315Y58679D01*
X213321Y59685D01*
X214032Y60916D01*
X214400Y62289D01*
Y62500D01*
D02*
G37*
G36*
X208500D02*
X203600D01*
Y62289D01*
X203968Y60916D01*
X204679Y59685D01*
X205685Y58679D01*
X206916Y57968D01*
X208289Y57600D01*
X208500D01*
Y62500D01*
D02*
G37*
G36*
X345663Y60106D02*
X344180D01*
X342747Y59722D01*
X341462Y58981D01*
X340413Y57932D01*
X339671Y56647D01*
X339287Y55214D01*
Y53731D01*
X339671Y52298D01*
X340413Y51013D01*
X341462Y49964D01*
X342747Y49222D01*
X344180Y48838D01*
X345663D01*
X347096Y49222D01*
X348380Y49964D01*
X349429Y51013D01*
X350171Y52298D01*
X350555Y53731D01*
Y55214D01*
X350171Y56647D01*
X349429Y57932D01*
X348380Y58981D01*
X347096Y59722D01*
X345663Y60106D01*
D02*
G37*
G36*
X143509Y47063D02*
X142491D01*
X141509Y46800D01*
X140629Y46291D01*
X139910Y45572D01*
X139401Y44692D01*
X139138Y43709D01*
Y42692D01*
X139401Y41710D01*
X139910Y40829D01*
X140629Y40110D01*
X141509Y39602D01*
X142491Y39339D01*
X143509D01*
X144491Y39602D01*
X145371Y40110D01*
X146090Y40829D01*
X146599Y41710D01*
X146862Y42692D01*
Y43709D01*
X146599Y44692D01*
X146090Y45572D01*
X145371Y46291D01*
X144491Y46800D01*
X143509Y47063D01*
D02*
G37*
G36*
X103508D02*
X102491D01*
X101509Y46800D01*
X100628Y46291D01*
X99910Y45572D01*
X99401Y44692D01*
X99138Y43709D01*
Y42692D01*
X99401Y41710D01*
X99910Y40829D01*
X100628Y40110D01*
X101509Y39602D01*
X102491Y39339D01*
X103508D01*
X104491Y39602D01*
X105371Y40110D01*
X106090Y40829D01*
X106599Y41710D01*
X106862Y42692D01*
Y43709D01*
X106599Y44692D01*
X106090Y45572D01*
X105371Y46291D01*
X104491Y46800D01*
X103508Y47063D01*
D02*
G37*
G36*
X291500Y35618D02*
Y32500D01*
X294618D01*
X294377Y33399D01*
X293900Y34225D01*
X293225Y34900D01*
X292399Y35377D01*
X291500Y35618D01*
D02*
G37*
G36*
X275500Y35245D02*
Y32500D01*
X278245D01*
X278041Y33260D01*
X277612Y34004D01*
X277004Y34612D01*
X276260Y35041D01*
X275500Y35245D01*
D02*
G37*
G36*
X274500D02*
X273740Y35041D01*
X272996Y34612D01*
X272388Y34004D01*
X271959Y33260D01*
X271755Y32500D01*
X274500D01*
Y35245D01*
D02*
G37*
G36*
X290500Y35618D02*
X289601Y35377D01*
X288775Y34900D01*
X288100Y34225D01*
X287623Y33399D01*
X287382Y32500D01*
X290500D01*
Y35618D01*
D02*
G37*
G36*
X301543Y36124D02*
X300457D01*
X299408Y35843D01*
X298468Y35300D01*
X297700Y34532D01*
X297157Y33592D01*
X296876Y32543D01*
Y31457D01*
X296959Y31146D01*
X296606Y30792D01*
X296543Y30809D01*
X295457D01*
X294911Y30663D01*
X294503Y31071D01*
X294618Y31500D01*
X291500D01*
Y28382D01*
X291696Y28435D01*
X292089Y28022D01*
X291876Y27228D01*
Y26166D01*
X282859Y17149D01*
X146198D01*
X145948Y17582D01*
X146133Y17903D01*
X146347Y18701D01*
X143000D01*
X139653D01*
X139867Y17903D01*
X140052Y17582D01*
X139802Y17149D01*
X108657D01*
X106862Y18943D01*
Y19709D01*
X106599Y20692D01*
X106090Y21572D01*
X105371Y22291D01*
X104491Y22800D01*
X103508Y23063D01*
X102491D01*
X101509Y22800D01*
X100628Y22291D01*
X99910Y21572D01*
X99401Y20692D01*
X99138Y19709D01*
Y18692D01*
X99401Y17710D01*
X99910Y16829D01*
X100628Y16110D01*
X101509Y15602D01*
X102491Y15339D01*
X103257D01*
X105798Y12798D01*
X106625Y12245D01*
X107601Y12051D01*
X283915D01*
X284891Y12245D01*
X285717Y12798D01*
X295481Y22561D01*
X296543D01*
X297592Y22842D01*
X298532Y23385D01*
X299300Y24153D01*
X299843Y25093D01*
X300124Y26142D01*
Y27228D01*
X300041Y27539D01*
X300394Y27893D01*
X300457Y27876D01*
X301543D01*
X302592Y28157D01*
X303532Y28700D01*
X304300Y29468D01*
X304843Y30408D01*
X305124Y31457D01*
Y32543D01*
X304843Y33592D01*
X304300Y34532D01*
X303532Y35300D01*
X302592Y35843D01*
X301543Y36124D01*
D02*
G37*
G36*
X77508Y36862D02*
X76491D01*
X75509Y36599D01*
X74629Y36090D01*
X73909Y35371D01*
X73401Y34491D01*
X73138Y33509D01*
Y32491D01*
X73401Y31509D01*
X73909Y30629D01*
X74629Y29910D01*
X75509Y29401D01*
X76491Y29138D01*
X77508D01*
X78491Y29401D01*
X79372Y29910D01*
X80090Y30629D01*
X80599Y31509D01*
X80862Y32491D01*
Y33509D01*
X80599Y34491D01*
X80090Y35371D01*
X79372Y36090D01*
X78491Y36599D01*
X77508Y36862D01*
D02*
G37*
G36*
X278245Y31500D02*
X275500D01*
Y28755D01*
X276260Y28959D01*
X277004Y29388D01*
X277612Y29996D01*
X278041Y30740D01*
X278245Y31500D01*
D02*
G37*
G36*
X274500D02*
X271755D01*
X271959Y30740D01*
X272388Y29996D01*
X272996Y29388D01*
X273740Y28959D01*
X274500Y28755D01*
Y31500D01*
D02*
G37*
G36*
X254245D02*
X251500D01*
Y28755D01*
X252260Y28959D01*
X253004Y29388D01*
X253612Y29996D01*
X254041Y30740D01*
X254245Y31500D01*
D02*
G37*
G36*
X250500D02*
X247755D01*
X247959Y30740D01*
X248388Y29996D01*
X248996Y29388D01*
X249740Y28959D01*
X250500Y28755D01*
Y31500D01*
D02*
G37*
G36*
X290500D02*
X287382D01*
X287623Y30601D01*
X288100Y29775D01*
X288775Y29100D01*
X289601Y28623D01*
X290500Y28382D01*
Y31500D01*
D02*
G37*
G36*
X262526Y39149D02*
X247726D01*
X246750Y38955D01*
X245924Y38402D01*
X243285Y35764D01*
X239362D01*
Y28236D01*
X246890D01*
Y32159D01*
X247290Y32559D01*
X247391Y32500D01*
X254245D01*
X254041Y33260D01*
X253873Y33551D01*
X254162Y34051D01*
X261470D01*
X263362Y32159D01*
Y28236D01*
X270890D01*
Y35764D01*
X266967D01*
X264328Y38402D01*
X263502Y38955D01*
X262526Y39149D01*
D02*
G37*
G36*
X142500Y30701D02*
X139653D01*
X139867Y29903D01*
X140310Y29136D01*
X140936Y28510D01*
X141702Y28068D01*
X142500Y27854D01*
Y30701D01*
D02*
G37*
G36*
X103508Y35063D02*
X102491D01*
X101509Y34800D01*
X100628Y34291D01*
X100087Y33750D01*
X89201D01*
X88225Y33556D01*
X87398Y33003D01*
X77257Y22862D01*
X76491D01*
X75509Y22599D01*
X74629Y22091D01*
X73909Y21371D01*
X73401Y20491D01*
X73138Y19509D01*
Y18492D01*
X73401Y17509D01*
X73909Y16629D01*
X74629Y15910D01*
X75509Y15401D01*
X76491Y15138D01*
X77508D01*
X78491Y15401D01*
X79372Y15910D01*
X80090Y16629D01*
X80599Y17509D01*
X80862Y18492D01*
Y19257D01*
X90257Y28652D01*
X100087D01*
X100628Y28110D01*
X101509Y27602D01*
X102491Y27339D01*
X103508D01*
X104491Y27602D01*
X105371Y28110D01*
X106090Y28829D01*
X106599Y29710D01*
X106862Y30692D01*
Y31709D01*
X106599Y32692D01*
X106090Y33572D01*
X105371Y34291D01*
X104491Y34800D01*
X103508Y35063D01*
D02*
G37*
G36*
X143500Y22548D02*
Y19701D01*
X146347D01*
X146133Y20499D01*
X145690Y21265D01*
X145064Y21891D01*
X144298Y22334D01*
X143500Y22548D01*
D02*
G37*
G36*
X142500D02*
X141702Y22334D01*
X140936Y21891D01*
X140310Y21265D01*
X139867Y20499D01*
X139653Y19701D01*
X142500D01*
Y22548D01*
D02*
G37*
G36*
X37508Y22862D02*
X36492D01*
X35509Y22599D01*
X34629Y22091D01*
X33909Y21371D01*
X33401Y20491D01*
X33138Y19509D01*
Y18492D01*
X33401Y17509D01*
X33909Y16629D01*
X34629Y15910D01*
X35509Y15401D01*
X36492Y15138D01*
X37508D01*
X38491Y15401D01*
X39371Y15910D01*
X40091Y16629D01*
X40599Y17509D01*
X40862Y18492D01*
Y19509D01*
X40599Y20491D01*
X40091Y21371D01*
X39371Y22091D01*
X38491Y22599D01*
X37508Y22862D01*
D02*
G37*
%LPD*%
G36*
X264751Y303944D02*
Y286526D01*
X264318Y286276D01*
X263833Y286556D01*
X262625Y286880D01*
X261375D01*
X260966Y286770D01*
X240934Y306802D01*
X240107Y307355D01*
X239132Y307549D01*
X217243D01*
X216726Y308065D01*
X215853Y308570D01*
X215087Y308775D01*
X214905Y309300D01*
X218056Y312451D01*
X256244D01*
X264751Y303944D01*
D02*
G37*
G36*
X67651Y275844D02*
Y255700D01*
X67845Y254725D01*
X68398Y253898D01*
X75198Y247098D01*
X76025Y246545D01*
X76883Y246374D01*
X77120Y245904D01*
X76910Y245693D01*
X76401Y244813D01*
X76138Y243830D01*
Y242813D01*
X76401Y241831D01*
X76910Y240951D01*
X77628Y240231D01*
X78509Y239723D01*
X79492Y239460D01*
X80509D01*
X81491Y239723D01*
X82371Y240231D01*
X83091Y240951D01*
X83599Y241831D01*
X83862Y242813D01*
Y243830D01*
X83599Y244813D01*
X83091Y245693D01*
X82895Y245889D01*
X83086Y246351D01*
X93414D01*
X94389Y246545D01*
X95216Y247098D01*
X98743Y250624D01*
X99509D01*
X100491Y250887D01*
X101372Y251396D01*
X102091Y252115D01*
X102599Y252995D01*
X102862Y253978D01*
Y254995D01*
X102599Y255977D01*
X102091Y256858D01*
X101372Y257577D01*
X101243Y257651D01*
X101377Y258151D01*
X130493D01*
X130684Y257689D01*
X112198Y239202D01*
X111645Y238375D01*
X111451Y237400D01*
Y218684D01*
X111039Y218272D01*
X110552Y217428D01*
X110300Y216487D01*
Y215513D01*
X110552Y214572D01*
X111039Y213728D01*
X111728Y213039D01*
X112572Y212552D01*
X112957Y212449D01*
X112891Y211949D01*
X95056D01*
X94663Y212342D01*
X94872Y212840D01*
X95535Y213018D01*
X96265Y213439D01*
X96861Y214035D01*
X97282Y214765D01*
X97479Y215500D01*
X94300D01*
Y216500D01*
X97479D01*
X97282Y217235D01*
X96861Y217965D01*
X96265Y218561D01*
X95535Y218982D01*
X94721Y219200D01*
X94705D01*
X89449Y224456D01*
Y225342D01*
X89255Y226317D01*
X88702Y227144D01*
X86616Y229231D01*
X86807Y229693D01*
X90244D01*
X90739Y229198D01*
X91566Y228645D01*
X92542Y228451D01*
X101933D01*
X101996Y228388D01*
X102740Y227959D01*
X103500Y227755D01*
Y231000D01*
Y234245D01*
X102740Y234041D01*
X101996Y233612D01*
X101933Y233549D01*
X93597D01*
X93102Y234044D01*
X92276Y234596D01*
X91300Y234791D01*
X82206D01*
X82064Y234932D01*
X81298Y235375D01*
X80443Y235604D01*
X80243D01*
X49175Y266671D01*
Y266911D01*
X49250Y266986D01*
X49682Y267734D01*
X49887Y268500D01*
X43365D01*
X43570Y267734D01*
X44002Y266986D01*
X44077Y266911D01*
Y265616D01*
X44271Y264640D01*
X44824Y263813D01*
X73384Y235252D01*
X73193Y234791D01*
X63217D01*
X43362Y254645D01*
Y254845D01*
X43133Y255700D01*
X42690Y256467D01*
X42064Y257093D01*
X41298Y257536D01*
X40500Y257749D01*
Y254403D01*
X39500D01*
Y257749D01*
X38702Y257536D01*
X37936Y257093D01*
X37310Y256467D01*
X36867Y255700D01*
X36849Y255633D01*
X36349Y255699D01*
Y266755D01*
X36849Y266996D01*
X37500Y266821D01*
Y270000D01*
X38000D01*
Y270500D01*
X41179D01*
X41004Y271151D01*
X41245Y271651D01*
X41826D01*
X42801Y271845D01*
X43628Y272398D01*
X46451Y275220D01*
X47124D01*
X48085Y275478D01*
X48947Y275976D01*
X49650Y276679D01*
X50148Y277541D01*
X50406Y278502D01*
Y279498D01*
X50148Y280459D01*
X49650Y281321D01*
X48947Y282024D01*
X48085Y282522D01*
X47124Y282780D01*
X46128D01*
X45167Y282522D01*
X44305Y282024D01*
X43602Y281321D01*
X43104Y280459D01*
X42847Y279498D01*
Y278825D01*
X40770Y276749D01*
X36043D01*
X35977Y277249D01*
X36235Y277318D01*
X36965Y277739D01*
X37561Y278335D01*
X37982Y279065D01*
X38179Y279800D01*
X35000D01*
X31821D01*
X32018Y279065D01*
X32439Y278335D01*
X33035Y277739D01*
X33765Y277318D01*
X34023Y277249D01*
X33957Y276749D01*
X33800D01*
X32825Y276555D01*
X31998Y276002D01*
X31445Y275175D01*
X31251Y274200D01*
Y249522D01*
X31445Y248547D01*
X31605Y248306D01*
X31217Y247988D01*
X30149Y249056D01*
Y284144D01*
X36756Y290751D01*
X42746D01*
X43048Y290251D01*
X42847Y289498D01*
Y288502D01*
X43104Y287541D01*
X43602Y286679D01*
X44305Y285976D01*
X45167Y285478D01*
X46128Y285221D01*
X47124D01*
X48085Y285478D01*
X48947Y285976D01*
X49650Y286679D01*
X50148Y287541D01*
X50406Y288502D01*
Y289498D01*
X50204Y290251D01*
X50506Y290751D01*
X52744D01*
X67651Y275844D01*
D02*
G37*
G36*
X178798Y287598D02*
X179624Y287045D01*
X180600Y286851D01*
X210508D01*
X210770Y286351D01*
X210543Y285504D01*
Y284496D01*
X210770Y283649D01*
X210508Y283149D01*
X169082D01*
X157457Y294774D01*
Y295504D01*
X157196Y296479D01*
X156923Y296951D01*
X157212Y297451D01*
X168944D01*
X178798Y287598D01*
D02*
G37*
G36*
X151274Y291935D02*
X152147Y291430D01*
X153122Y291169D01*
X153852D01*
X166224Y278798D01*
X167051Y278245D01*
X168026Y278051D01*
X211354D01*
X211546Y277589D01*
X211309Y277352D01*
X210804Y276479D01*
X210543Y275504D01*
Y274496D01*
X210804Y273521D01*
X211077Y273049D01*
X210788Y272549D01*
X158626D01*
X157650Y272355D01*
X156824Y271802D01*
X153852Y268831D01*
X153122D01*
X152147Y268570D01*
X151274Y268065D01*
X150561Y267352D01*
X150056Y266479D01*
X149795Y265504D01*
Y264774D01*
X149370Y264349D01*
X140414D01*
X140348Y264849D01*
X140491Y264887D01*
X141372Y265396D01*
X142090Y266115D01*
X142599Y266995D01*
X142862Y267978D01*
Y268995D01*
X142599Y269977D01*
X142090Y270858D01*
X141372Y271577D01*
X140491Y272085D01*
X139508Y272348D01*
X138743D01*
X137149Y273942D01*
Y279173D01*
X137582Y279423D01*
X137702Y279353D01*
X138500Y279139D01*
Y282486D01*
X139500D01*
Y279139D01*
X140298Y279353D01*
X141064Y279796D01*
X141690Y280422D01*
X142133Y281188D01*
X142362Y282044D01*
Y282244D01*
X149502Y289384D01*
X150055Y290211D01*
X150249Y291186D01*
Y292252D01*
X150749Y292460D01*
X151274Y291935D01*
D02*
G37*
G36*
X225438Y277110D02*
X226082Y275994D01*
X226994Y275082D01*
X228110Y274438D01*
X228268Y274396D01*
X228202Y273896D01*
X225104D01*
Y272549D01*
X217960D01*
X217671Y273049D01*
X217944Y273521D01*
X218205Y274496D01*
Y275504D01*
X217944Y276479D01*
X217439Y277352D01*
X217202Y277589D01*
X217394Y278051D01*
X225186D01*
X225438Y277110D01*
D02*
G37*
G36*
X96757Y257651D02*
X96628Y257577D01*
X95910Y256858D01*
X95401Y255977D01*
X95138Y254995D01*
Y254229D01*
X92358Y251449D01*
X83162D01*
X82970Y251911D01*
X83091Y252031D01*
X83599Y252912D01*
X83862Y253894D01*
Y254660D01*
X87353Y258151D01*
X96623D01*
X96757Y257651D01*
D02*
G37*
G36*
X36867Y253105D02*
X37310Y252338D01*
X37936Y251712D01*
X38702Y251270D01*
X39557Y251040D01*
X39757D01*
X60359Y230439D01*
X61186Y229887D01*
X62161Y229693D01*
X77794D01*
X77936Y229551D01*
X78702Y229109D01*
X79557Y228879D01*
X79757D01*
X84351Y224286D01*
Y223400D01*
X84545Y222425D01*
X85098Y221598D01*
X88622Y218073D01*
X88387Y217632D01*
X88300Y217649D01*
X82561D01*
X82450Y218149D01*
X83091Y218790D01*
X83599Y219670D01*
X83862Y220653D01*
Y221670D01*
X83599Y222652D01*
X83091Y223533D01*
X82371Y224252D01*
X81491Y224760D01*
X80509Y225023D01*
X79492D01*
X78509Y224760D01*
X77628Y224252D01*
X76910Y223533D01*
X76401Y222652D01*
X76138Y221670D01*
Y220653D01*
X76401Y219670D01*
X76910Y218790D01*
X77550Y218149D01*
X77439Y217649D01*
X67056D01*
X46202Y238502D01*
X45375Y239055D01*
X44400Y239249D01*
X41802D01*
X41763Y239313D01*
X41934Y239979D01*
X42371Y240231D01*
X43091Y240951D01*
X43599Y241831D01*
X43862Y242813D01*
Y243830D01*
X43599Y244813D01*
X43091Y245693D01*
X42371Y246412D01*
X41491Y246921D01*
X40508Y247184D01*
X39743D01*
X36349Y250578D01*
Y253106D01*
X36849Y253172D01*
X36867Y253105D01*
D02*
G37*
G36*
X149795Y225226D02*
Y224496D01*
X150056Y223521D01*
X150561Y222648D01*
X151274Y221935D01*
X152147Y221430D01*
X153122Y221169D01*
X153852D01*
X162451Y212570D01*
Y207056D01*
X158544Y203149D01*
X157492D01*
X157230Y203649D01*
X157457Y204496D01*
Y205504D01*
X157196Y206479D01*
X156691Y207352D01*
X155978Y208065D01*
X155105Y208570D01*
X154130Y208831D01*
X153122D01*
X152147Y208570D01*
X151274Y208065D01*
X150561Y207352D01*
X150056Y206479D01*
X149795Y205504D01*
Y204496D01*
X150022Y203649D01*
X149760Y203149D01*
X146087D01*
X145865Y203635D01*
X153400Y211169D01*
X154130D01*
X155105Y211430D01*
X155978Y211935D01*
X156691Y212648D01*
X157196Y213521D01*
X157457Y214496D01*
Y215504D01*
X157196Y216479D01*
X156691Y217352D01*
X155978Y218065D01*
X155105Y218570D01*
X154130Y218831D01*
X153122D01*
X152147Y218570D01*
X151274Y218065D01*
X150561Y217352D01*
X150056Y216479D01*
X149795Y215504D01*
Y214774D01*
X141070Y206049D01*
X123100D01*
X122125Y205855D01*
X121298Y205302D01*
X118122Y202127D01*
X117700Y202412D01*
Y203289D01*
X117448Y204230D01*
X116961Y205074D01*
X116272Y205763D01*
X115428Y206250D01*
X114795Y206420D01*
X114812Y206933D01*
X115375Y207045D01*
X116202Y207598D01*
X133642Y225038D01*
X134104Y224846D01*
Y218104D01*
X137202D01*
X137268Y217604D01*
X137110Y217562D01*
X135994Y216917D01*
X135082Y216006D01*
X134438Y214890D01*
X134104Y213645D01*
Y212355D01*
X134438Y211110D01*
X135082Y209994D01*
X135994Y209083D01*
X137110Y208438D01*
X138356Y208104D01*
X139645D01*
X140890Y208438D01*
X142006Y209083D01*
X142918Y209994D01*
X143562Y211110D01*
X143896Y212355D01*
Y213645D01*
X143562Y214890D01*
X142918Y216006D01*
X142006Y216917D01*
X140890Y217562D01*
X140732Y217604D01*
X140798Y218104D01*
X143896D01*
Y225851D01*
X149170D01*
X149795Y225226D01*
D02*
G37*
G36*
X142160Y200465D02*
X140244Y198549D01*
X122407D01*
X122216Y199011D01*
X124156Y200951D01*
X141939D01*
X142160Y200465D01*
D02*
G37*
G36*
X150798Y197589D02*
X150561Y197352D01*
X150056Y196479D01*
X149795Y195504D01*
Y194774D01*
X146570Y191549D01*
X143896D01*
Y193896D01*
X143508D01*
X143300Y194396D01*
X146956Y198051D01*
X150606D01*
X150798Y197589D01*
D02*
G37*
%LPC*%
G36*
X35500Y283479D02*
Y280800D01*
X38179D01*
X37982Y281535D01*
X37561Y282265D01*
X36965Y282861D01*
X36235Y283282D01*
X35500Y283479D01*
D02*
G37*
G36*
X34500D02*
X33765Y283282D01*
X33035Y282861D01*
X32439Y282265D01*
X32018Y281535D01*
X31821Y280800D01*
X34500D01*
Y283479D01*
D02*
G37*
G36*
X47126Y272261D02*
Y269500D01*
X49887D01*
X49682Y270266D01*
X49250Y271014D01*
X48640Y271624D01*
X47892Y272056D01*
X47126Y272261D01*
D02*
G37*
G36*
X46126D02*
X45360Y272056D01*
X44612Y271624D01*
X44002Y271014D01*
X43570Y270266D01*
X43365Y269500D01*
X46126D01*
Y272261D01*
D02*
G37*
G36*
X41179Y269500D02*
X38500D01*
Y266821D01*
X39235Y267018D01*
X39965Y267439D01*
X40561Y268035D01*
X40982Y268765D01*
X41179Y269500D01*
D02*
G37*
G36*
X107764Y242638D02*
X100236D01*
Y235110D01*
X107764D01*
Y242638D01*
D02*
G37*
G36*
X104500Y234245D02*
Y231500D01*
X107245D01*
X107041Y232260D01*
X106612Y233004D01*
X106004Y233612D01*
X105260Y234041D01*
X104500Y234245D01*
D02*
G37*
G36*
X107245Y230500D02*
X104500D01*
Y227755D01*
X105260Y227959D01*
X106004Y228388D01*
X106612Y228996D01*
X107041Y229740D01*
X107245Y230500D01*
D02*
G37*
G36*
X154130Y288831D02*
X153122D01*
X152147Y288570D01*
X151274Y288065D01*
X150561Y287352D01*
X150056Y286479D01*
X149795Y285504D01*
Y284496D01*
X150056Y283521D01*
X150561Y282648D01*
X151274Y281935D01*
X152147Y281430D01*
X153122Y281169D01*
X154130D01*
X155105Y281430D01*
X155978Y281935D01*
X156691Y282648D01*
X157196Y283521D01*
X157457Y284496D01*
Y285504D01*
X157196Y286479D01*
X156691Y287352D01*
X155978Y288065D01*
X155105Y288570D01*
X154130Y288831D01*
D02*
G37*
G36*
Y278831D02*
X153122D01*
X152147Y278570D01*
X151274Y278065D01*
X150561Y277352D01*
X150056Y276479D01*
X149795Y275504D01*
Y274496D01*
X150056Y273521D01*
X150561Y272648D01*
X151274Y271935D01*
X152147Y271430D01*
X153122Y271169D01*
X154130D01*
X155105Y271430D01*
X155978Y271935D01*
X156691Y272648D01*
X157196Y273521D01*
X157457Y274496D01*
Y275504D01*
X157196Y276479D01*
X156691Y277352D01*
X155978Y278065D01*
X155105Y278570D01*
X154130Y278831D01*
D02*
G37*
%LPD*%
G36*
X247367Y243187D02*
X247252Y242757D01*
Y241507D01*
X247575Y240299D01*
X248201Y239216D01*
X249085Y238332D01*
X250167Y237707D01*
X251375Y237384D01*
X252625D01*
X253034Y237493D01*
X267378Y223149D01*
X267171Y222649D01*
X256156D01*
X243149Y235656D01*
Y239676D01*
X246919Y243446D01*
X247367Y243187D01*
D02*
G37*
G36*
X184290Y88570D02*
X183772Y87795D01*
X183327Y86721D01*
X183100Y85581D01*
Y84419D01*
X183327Y83279D01*
X183772Y82205D01*
X184417Y81239D01*
X185122Y80534D01*
X184957Y80035D01*
X179671D01*
X174900Y84806D01*
Y85581D01*
X174673Y86721D01*
X174228Y87795D01*
X173710Y88570D01*
X173951Y89070D01*
X184048D01*
X184290Y88570D01*
D02*
G37*
G36*
X143100Y64549D02*
X123725D01*
X123536Y65049D01*
X123913Y65702D01*
X124142Y66557D01*
Y66757D01*
X125535Y68151D01*
X143100D01*
Y64549D01*
D02*
G37*
G36*
X176161Y68145D02*
X177136Y67951D01*
X184922D01*
X185108Y67451D01*
X184417Y66761D01*
X183772Y65794D01*
X183327Y64721D01*
X183100Y63581D01*
Y62806D01*
X161503Y41208D01*
X160890Y41562D01*
X159644Y41896D01*
X158355D01*
X157879Y41768D01*
X157620Y42216D01*
X158702Y43298D01*
X159255Y44125D01*
X159449Y45101D01*
Y63744D01*
X163856Y68151D01*
X165229D01*
X165374Y67673D01*
X165239Y67582D01*
X164418Y66761D01*
X163772Y65794D01*
X163327Y64721D01*
X163100Y63581D01*
Y62419D01*
X163327Y61279D01*
X163772Y60206D01*
X164418Y59239D01*
X165239Y58417D01*
X166206Y57772D01*
X167279Y57327D01*
X168419Y57100D01*
X169581D01*
X170721Y57327D01*
X171794Y57772D01*
X172761Y58417D01*
X173582Y59239D01*
X174228Y60206D01*
X174673Y61279D01*
X174900Y62419D01*
Y63581D01*
X174673Y64721D01*
X174228Y65794D01*
X173582Y66761D01*
X172761Y67582D01*
X172626Y67673D01*
X172771Y68151D01*
X176152D01*
X176161Y68145D01*
D02*
G37*
G36*
X259366Y54401D02*
Y53731D01*
X259750Y52298D01*
X260284Y51373D01*
X259995Y50873D01*
X254462D01*
X250791Y54544D01*
Y55214D01*
X250407Y56647D01*
X249666Y57932D01*
X248617Y58981D01*
X247777Y59465D01*
X247911Y59965D01*
X253801D01*
X259366Y54401D01*
D02*
G37*
D50*
X90000Y155000D02*
X101000Y144000D01*
X79522Y154522D02*
X80000Y155000D01*
X77754Y154522D02*
X79522D01*
X48000Y154000D02*
X77232D01*
X30000Y136000D02*
X48000Y154000D01*
X77232D02*
X77754Y154522D01*
X252791Y46839D02*
X288005D01*
X245157Y54472D02*
X252791Y46839D01*
X288005D02*
X295000Y53834D01*
Y73843D01*
X284843Y84000D02*
X295000Y73843D01*
X255472Y64000D02*
X265000Y54472D01*
X203000Y37000D02*
X230000Y64000D01*
X255472D01*
X178000Y76000D02*
X247953D01*
X255953Y84000D01*
X265000D01*
X169000Y85000D02*
X178000Y76000D01*
X237004Y93104D02*
X276000Y132100D01*
X157104Y93104D02*
X237004D01*
X149000Y85000D02*
X157104Y93104D01*
X82317Y109280D02*
X104015D01*
X77000Y103963D02*
X82317Y109280D01*
X104015D02*
X111000Y102295D01*
Y98000D02*
Y102295D01*
X77000Y103895D02*
X79000Y101895D01*
X37000Y33000D02*
X79000Y75000D01*
X77000Y103895D02*
Y103963D01*
X79000Y75000D02*
Y101895D01*
X159000Y37000D02*
X163000D01*
X189000Y63000D01*
X179000Y37000D02*
X203000D01*
X265000Y54472D02*
X284843D01*
X223000Y37000D02*
X227685D01*
X245157Y54472D01*
X111000Y98000D02*
X124000Y85000D01*
X149000D01*
X276000Y132100D02*
Y138000D01*
D51*
X145900Y200600D02*
X159600D01*
X165000Y206000D02*
Y213626D01*
X159600Y200600D02*
X165000Y206000D01*
X153626Y225000D02*
X165000Y213626D01*
X94500Y139500D02*
X102864D01*
X60000Y144420D02*
X89580D01*
X94500Y139500D01*
X112597Y149233D02*
Y163000D01*
X102864Y139500D02*
X112597Y149233D01*
X218874Y170500D02*
X252500D01*
X255000Y173000D02*
Y176206D01*
X252500Y170500D02*
X255000Y173000D01*
X249500Y181706D02*
X255000Y176206D01*
X148000Y62000D02*
X149000Y63000D01*
X112000Y62000D02*
X148000D01*
X107000Y67000D02*
X112000Y62000D01*
X201500Y70500D02*
X209000Y63000D01*
X162800Y70700D02*
X176936D01*
X177136Y70500D01*
X201500D01*
X124480Y70700D02*
X162800D01*
X240600Y240732D02*
Y248000D01*
Y234600D02*
Y240732D01*
X143000Y31201D02*
X156900Y45101D01*
Y64800D01*
X162800Y70700D01*
X120780Y67000D02*
X124480Y70700D01*
X150226Y228400D02*
X153626Y225000D01*
X133400Y228400D02*
X150226D01*
X114400Y209400D02*
X133400Y228400D01*
X94000Y209400D02*
X114400D01*
X88300Y215100D02*
X94000Y209400D01*
X66000Y215100D02*
X88300D01*
X44400Y236700D02*
X66000Y215100D01*
X38900Y236700D02*
X44400D01*
X27600Y248000D02*
X38900Y236700D01*
X27600Y248000D02*
Y285200D01*
X35700Y293300D01*
X53800D01*
X70200Y276900D01*
Y255700D02*
Y276900D01*
Y255700D02*
X77000Y248900D01*
X93414D01*
X99000Y254486D01*
X141300Y196000D02*
X145900Y200600D01*
X120700Y196000D02*
X141300D01*
X113700Y189000D02*
X120700Y196000D01*
X60000Y199000D02*
X80000D01*
X43400Y215600D02*
X60000Y199000D01*
X27200Y215600D02*
X43400D01*
X18300Y224500D02*
X27200Y215600D01*
X18300Y224500D02*
Y270000D01*
X80000Y199000D02*
X87500D01*
X87900Y198600D01*
X118200D01*
X123100Y203500D01*
X142126D01*
X153626Y215000D01*
X77374Y299000D02*
X88263Y309889D01*
X99000D01*
X103889Y305000D01*
X114000Y216000D02*
Y237400D01*
X138400Y261800D01*
X150426D01*
X153626Y265000D01*
X158626Y270000D01*
X225400D01*
X226400Y269000D01*
X230000D01*
X233706Y175000D02*
X248000D01*
X227000Y181706D02*
X233706Y175000D01*
X214374Y215000D02*
X281947D01*
X291947Y205000D01*
X305167D01*
X262526Y36600D02*
X267126Y32000D01*
X247726Y36600D02*
X262526D01*
X243126Y32000D02*
X247726Y36600D01*
X318135Y224500D02*
X329680D01*
X337480Y232300D01*
X346000D01*
X295045Y264500D02*
X306590D01*
X283500D02*
X295045D01*
X300000Y297000D02*
X309000D01*
X331000Y283000D02*
X345000Y297000D01*
X349000D01*
X324580Y259400D02*
X329680Y264500D01*
X264732Y259400D02*
X324580D01*
X262000Y262132D02*
X264732Y259400D01*
X210000Y299374D02*
X214374Y295000D01*
X210000Y299374D02*
Y308000D01*
X217000Y315000D01*
X257300D01*
X267300Y305000D01*
Y277432D02*
Y305000D01*
X262000Y272132D02*
X267300Y277432D01*
X262000Y272132D02*
X310503D01*
X318135Y264500D01*
X322535Y268900D01*
X333100D01*
X346000Y256000D01*
Y252000D02*
Y256000D01*
X60000Y123948D02*
X67952Y131900D01*
X83100D01*
X90000Y125000D01*
X95600Y130600D01*
X118400D01*
X126000Y123000D01*
X43000Y171000D02*
X58790D01*
X30000Y158000D02*
X43000Y171000D01*
X58790D02*
X76790Y189000D01*
X94000D01*
X140000Y139000D02*
X144000Y135000D01*
X153626D01*
X86900Y223400D02*
X94300Y216000D01*
X86900Y223400D02*
Y225342D01*
X80000Y232242D02*
X86900Y225342D01*
X62161Y232242D02*
X80000D01*
X40000Y254403D02*
X62161Y232242D01*
X46626Y265616D02*
X80000Y232242D01*
X46626Y265616D02*
Y269000D01*
X80000Y232242D02*
X91300D01*
X92542Y231000D01*
X104000D01*
X153626Y255000D02*
X158626Y250000D01*
X226000D01*
X229000Y247000D01*
X227000Y201706D02*
X232406Y196300D01*
X267726D01*
X278726Y185300D01*
X291947D01*
X305167D01*
X139000Y282486D02*
X147700Y291186D01*
Y295700D01*
X152000Y300000D01*
X170000D01*
X180600Y289400D01*
X218700D01*
X219100Y289000D01*
X230000D01*
X305167Y185300D02*
X331300D01*
X343000Y197000D01*
X230000Y289000D02*
X236868Y282132D01*
X252000D01*
X77374Y269000D02*
X88900D01*
X89414Y268486D01*
X99000D01*
X153626Y145000D02*
X207600Y198974D01*
Y205500D01*
X212000Y209900D01*
X273826D01*
X278726Y205000D01*
X33800Y249522D02*
X40000Y243322D01*
X33800Y249522D02*
Y274200D01*
X41826D01*
X46626Y279000D01*
X237000Y191706D02*
X243406Y185300D01*
X265506D01*
X248000Y205000D02*
X265506D01*
X77374Y279000D02*
X80860Y282486D01*
X99000D01*
X77374Y289000D02*
X89222Y300848D01*
X134638D01*
X139000Y296486D01*
X228400Y280600D02*
X230000Y279000D01*
X168026Y280600D02*
X228400D01*
X153626Y295000D02*
X168026Y280600D01*
X139000Y189000D02*
X147626D01*
X153626Y195000D01*
X139000Y179000D02*
X145000Y185000D01*
X153626D01*
X139000Y169000D02*
X145000Y175000D01*
X153626D01*
X139000Y159000D02*
X145000Y165000D01*
X153626D01*
X139000Y149000D02*
X145000Y155000D01*
X153626D01*
Y115000D02*
X168626Y100000D01*
X232000D01*
X214374Y115000D02*
X219374Y110000D01*
X232000D01*
X214374Y125000D02*
X219374Y120000D01*
X232000D01*
X214374Y135000D02*
X223000D01*
X229000Y141000D01*
X214374Y145000D02*
X220374Y151000D01*
X229000D01*
X214374Y175000D02*
X218874Y170500D01*
X237000Y181706D02*
X249500D01*
X214374Y185000D02*
X221080Y191706D01*
X227000D01*
X214374Y205000D02*
X216974D01*
X217774Y205800D01*
X232906D01*
X237000Y201706D01*
X214374Y235000D02*
X222374Y227000D01*
X229000D01*
X214374Y245000D02*
X222374Y237000D01*
X229000D01*
X214374Y255000D02*
X233600D01*
X240600Y248000D01*
X255100Y220100D02*
X290645D01*
X295045Y224500D01*
X240600Y240732D02*
X252000Y252132D01*
X240600Y234600D02*
X255100Y220100D01*
X252000Y242132D02*
X269632Y224500D01*
X283500D01*
X214374Y305000D02*
X239132D01*
X262000Y282132D01*
X80000Y254403D02*
X86297Y260700D01*
X131214D01*
X139000Y268486D01*
X134600Y272886D02*
X139000Y268486D01*
X134600Y272886D02*
Y284700D01*
X143400Y293500D01*
Y305489D01*
X139000Y309889D02*
X143400Y305489D01*
X30000Y116000D02*
X71000D01*
X80000Y125000D01*
X103000Y19201D02*
X107601Y14600D01*
X283915D01*
X296000Y26685D01*
X53475Y166000D02*
X78000D01*
X86000Y174000D01*
X115000D01*
X126000Y163000D01*
X77000Y19000D02*
X89201Y31201D01*
X103000D01*
D52*
X344921Y84000D02*
D03*
X284843D02*
D03*
X265000D02*
D03*
X245157D02*
D03*
Y54472D02*
D03*
X265000D02*
D03*
X284843D02*
D03*
X344921D02*
D03*
D53*
X301000Y32000D02*
D03*
X296000Y26685D02*
D03*
X291000Y32000D02*
D03*
X67000Y103963D02*
D03*
X72000Y98648D02*
D03*
X77000Y103963D02*
D03*
X58790Y161000D02*
D03*
X53475Y166000D02*
D03*
X58790Y171000D02*
D03*
D54*
X12000Y12000D02*
D03*
Y312000D02*
D03*
X356000D02*
D03*
Y12000D02*
D03*
D55*
X90000Y155000D02*
D03*
X80000D02*
D03*
Y125000D02*
D03*
X90000D02*
D03*
D56*
X94300Y216000D02*
D03*
X114000D02*
D03*
X94000Y189000D02*
D03*
X113700D02*
D03*
X94300Y202802D02*
D03*
X114000D02*
D03*
X291947Y185300D02*
D03*
Y205000D02*
D03*
X305167Y185300D02*
D03*
Y205000D02*
D03*
X278726Y185300D02*
D03*
Y205000D02*
D03*
X38000Y270000D02*
D03*
X18300D02*
D03*
X35000Y280300D02*
D03*
Y300000D02*
D03*
X265506Y185300D02*
D03*
Y205000D02*
D03*
X280300Y297000D02*
D03*
X300000D02*
D03*
X346000Y170000D02*
D03*
Y150300D02*
D03*
Y252000D02*
D03*
Y232300D02*
D03*
X331000Y283000D02*
D03*
X311300D02*
D03*
D57*
X101000Y102000D02*
D03*
X111000D02*
D03*
D58*
X121000D02*
D03*
D59*
X179000Y37000D02*
D03*
X223000D02*
D03*
D60*
X159000D02*
D03*
X203000D02*
D03*
X30000Y178000D02*
D03*
Y116000D02*
D03*
X139000Y179000D02*
D03*
Y169000D02*
D03*
Y159000D02*
D03*
Y149000D02*
D03*
X229000Y161000D02*
D03*
Y151000D02*
D03*
Y141000D02*
D03*
X232000Y110000D02*
D03*
Y120000D02*
D03*
X230000Y279000D02*
D03*
Y289000D02*
D03*
X229000Y237000D02*
D03*
Y247000D02*
D03*
X139000Y213000D02*
D03*
D61*
X30000Y158000D02*
D03*
Y136000D02*
D03*
X139000Y189000D02*
D03*
X229000Y131000D02*
D03*
X232000Y100000D02*
D03*
X230000Y269000D02*
D03*
X229000Y227000D02*
D03*
X139000Y223000D02*
D03*
D62*
X237000Y181706D02*
D03*
D63*
X227000D02*
D03*
X237000Y191706D02*
D03*
X227000D02*
D03*
X237000Y201706D02*
D03*
X227000D02*
D03*
D64*
X346000Y108488D02*
D03*
D65*
Y142000D02*
D03*
D66*
X276000Y138000D02*
D03*
D67*
X315370D02*
D03*
D68*
X252000Y282132D02*
D03*
X262000D02*
D03*
X252000Y272132D02*
D03*
X262000D02*
D03*
X252000Y262132D02*
D03*
X262000D02*
D03*
X252000Y252132D02*
D03*
X262000D02*
D03*
X252000Y242132D02*
D03*
D69*
X262000D02*
D03*
D70*
X140000Y109000D02*
D03*
X248000Y175000D02*
D03*
X104000Y238874D02*
D03*
D71*
X140000Y139000D02*
D03*
X248000Y205000D02*
D03*
X104000Y231000D02*
D03*
X275000Y32000D02*
D03*
X251000D02*
D03*
D72*
X245000Y166000D02*
D03*
Y123000D02*
D03*
D73*
X120780Y67000D02*
D03*
X343000Y197000D02*
D03*
X139000Y296486D02*
D03*
X99000D02*
D03*
X139000Y309889D02*
D03*
X99000D02*
D03*
X77000Y19000D02*
D03*
X37000D02*
D03*
X139000Y268486D02*
D03*
X99000D02*
D03*
Y254486D02*
D03*
X139000D02*
D03*
X143000Y31201D02*
D03*
X103000D02*
D03*
X143000Y43201D02*
D03*
X103000D02*
D03*
X139000Y282486D02*
D03*
X99000D02*
D03*
X40000Y254403D02*
D03*
X80000D02*
D03*
X143000Y19201D02*
D03*
X103000D02*
D03*
X40000Y210081D02*
D03*
X80000D02*
D03*
Y221161D02*
D03*
X40000D02*
D03*
Y243322D02*
D03*
X80000D02*
D03*
Y199000D02*
D03*
X40000D02*
D03*
X80000Y232242D02*
D03*
X40000D02*
D03*
X306590Y224500D02*
D03*
Y264500D02*
D03*
X77000Y33000D02*
D03*
X37000D02*
D03*
X112597Y163000D02*
D03*
Y123000D02*
D03*
X86000Y174000D02*
D03*
X126000D02*
D03*
Y123000D02*
D03*
Y163000D02*
D03*
X283500Y224500D02*
D03*
Y264500D02*
D03*
X295045Y224500D02*
D03*
Y264500D02*
D03*
X329680D02*
D03*
Y224500D02*
D03*
X318135Y264500D02*
D03*
Y224500D02*
D03*
X349000Y297000D02*
D03*
X309000D02*
D03*
D74*
X107000Y67000D02*
D03*
X329220Y197000D02*
D03*
D75*
X267126Y32000D02*
D03*
X243126D02*
D03*
D76*
X149000Y85000D02*
D03*
Y63000D02*
D03*
D77*
X169000Y85000D02*
D03*
X189000D02*
D03*
X209000D02*
D03*
X169000Y63000D02*
D03*
X189000D02*
D03*
X209000D02*
D03*
D78*
X60000Y123948D02*
D03*
Y134184D02*
D03*
Y144420D02*
D03*
D79*
X153626Y305000D02*
D03*
D80*
Y295000D02*
D03*
Y285000D02*
D03*
Y275000D02*
D03*
Y265000D02*
D03*
Y255000D02*
D03*
Y245000D02*
D03*
Y235000D02*
D03*
Y225000D02*
D03*
Y215000D02*
D03*
Y205000D02*
D03*
Y195000D02*
D03*
Y185000D02*
D03*
Y175000D02*
D03*
Y165000D02*
D03*
Y155000D02*
D03*
Y145000D02*
D03*
Y135000D02*
D03*
Y125000D02*
D03*
Y115000D02*
D03*
X214374D02*
D03*
Y125000D02*
D03*
Y135000D02*
D03*
Y145000D02*
D03*
Y155000D02*
D03*
Y165000D02*
D03*
Y175000D02*
D03*
Y185000D02*
D03*
Y195000D02*
D03*
Y205000D02*
D03*
Y215000D02*
D03*
Y225000D02*
D03*
Y235000D02*
D03*
Y245000D02*
D03*
Y255000D02*
D03*
Y265000D02*
D03*
Y275000D02*
D03*
Y285000D02*
D03*
Y295000D02*
D03*
Y305000D02*
D03*
D81*
X77374Y299000D02*
D03*
Y289000D02*
D03*
Y279000D02*
D03*
Y269000D02*
D03*
X46626D02*
D03*
Y279000D02*
D03*
Y289000D02*
D03*
D82*
Y299000D02*
D03*
D83*
X101000Y144000D02*
D03*
X103889Y305000D02*
D03*
M02*
