M48
;Layer_Color=9474304
;FILE_FORMAT=2:5
INCH,LZ
;TYPE=PLATED
T1F00S00C0.02000
T2F00S00C0.02559
T3F00S00C0.02756
T4F00S00C0.02800
T5F00S00C0.02953
T6F00S00C0.02984
T7F00S00C0.03087
T8F00S00C0.03150
T9F00S00C0.03228
T10F00S00C0.03780
T11F00S00C0.03900
T12F00S00C0.04331
T13F00S00C0.04528
T14F00S00C0.04724
T15F00S00C0.05000
T16F00S00C0.05039
T17F00S00C0.05512
T18F00S00C0.05866
T19F00S00C0.11811
%
T01
X0101Y0144
X0103889Y0305
T02
X0227Y0181706
X0237
Y0191706
X0227
Y0201706
X0237
T03
X0245Y0123
Y0166
T04
X0265506Y01853
X0278726
X0291947
X0305167
Y0205
X0291947
X0278726
X0265506
X0346Y017
Y01503
X01137Y0189
X0114Y0202802
X00943
X0094Y0189
X0038Y027
X0035Y02803
Y03
X00183Y027
X00943Y0216
X0114
X02803Y0297
X03
X03113Y0283
X0331
X0346Y0252
Y02323
T05
X0243126Y0032
X0251
X0267126
X0275
X0248Y0175
Y0205
X014Y0139
Y0109
X0104Y0231
Y0238874
T06
X0046626Y0269
Y0279
Y0289
Y0299
X0077374
Y0289
Y0279
Y0269
T07
X0214374Y0115
Y0125
Y0135
Y0145
Y0155
Y0165
Y0175
Y0185
Y0195
Y0205
X0153626
Y0195
Y0185
Y0175
Y0165
Y0155
Y0145
Y0135
Y0125
Y0115
Y0215
Y0225
Y0235
Y0245
Y0255
Y0265
Y0275
Y0285
Y0295
Y0305
X0214374
Y0295
Y0285
Y0275
Y0265
Y0255
Y0245
Y0235
Y0225
Y0215
T08
X0037Y0019
Y0033
X0077
Y0019
X0103Y0019201
Y0031201
Y0043201
X0143
Y0031201
Y0019201
X032922Y0197
X0343
X0126Y0174
Y0163
X0112597
X0086Y0174
X008Y0199
Y0210081
X0112597Y0123
X0126
X012078Y0067
X0107
X004Y0199
Y0210081
Y0221161
Y0232242
Y0243322
Y0254403
X008
Y0243322
Y0232242
Y0221161
X0099Y0254486
Y0268486
Y0282486
Y0296486
Y0309889
X0139
Y0296486
Y0282486
Y0268486
Y0254486
X02835Y02645
X0295045
X030659
X0318135
X032968
Y02245
X0318135
X030659
X0295045
X02835
X0309Y0297
X0349
T09
X0296Y0026685
X0301Y0032
X0291
X0072Y0098648
X0067Y0103963
X0077
X005879Y0161
Y0171
X0053475Y0166
T10
X006Y0123948
Y0134184
Y014442
T11
X0346Y0108488
Y0142
T12
X0252Y0242132
Y0252132
Y0262132
Y0272132
Y0282132
X0262
Y0272132
Y0262132
Y0252132
Y0242132
T13
X0159Y0037
X0179
X0203
X0223
X0232Y01
Y011
Y012
X0229Y0131
Y0141
Y0151
Y0161
X0139Y0159
Y0169
Y0179
Y0189
Y0149
X003Y0158
Y0178
Y0136
Y0116
X0139Y0213
Y0223
X0229Y0227
Y0237
Y0247
X023Y0269
Y0279
Y0289
T14
X0276Y0138
X031537
T15
X008Y0125
X009
Y0155
X008
T16
X0101Y0102
X0111
X0121
T17
X0245157Y0054472
X0265
X0284843
Y0084
X0265
X0245157
X0344921
Y0054472
T18
X0149Y0063
X0169
X0189
X0209
Y0085
X0189
X0169
X0149
T19
X0012Y0012
X0356
X0012Y0312
X0356
M30
